<svg width="32" height="22" viewBox="0 0 32 22" fill="none" xmlns="http://www.w3.org/2000/svg">
<path fill-rule="evenodd" clip-rule="evenodd" d="M1.75652 0H30.2377C31.2058 0 31.9942 0.779167 31.9942 1.73594V20.2583C31.9942 21.2094 31.2058 21.9885 30.2435 21.9943H1.75072C0.788406 22 0 21.2151 0 20.2641V1.73594C0 0.779167 0.788406 0 1.75652 0Z" fill="black"/>
<path fill-rule="evenodd" clip-rule="evenodd" d="M0 7.3335H32V20.2642C32 21.221 31.2116 22.0002 30.2435 22.0002H1.75652C0.788406 22.0002 0 21.221 0 20.2642V7.3335Z" fill="#DD0000"/>
<path fill-rule="evenodd" clip-rule="evenodd" d="M0 14.6665H32V20.2639C32 21.2149 31.2116 21.9941 30.2493 21.9998H1.75652C1.29113 21.9983 0.845243 21.8149 0.516162 21.4897C0.187081 21.1645 0.00152838 20.7238 0 20.2639L0 14.6665Z" fill="#FFCE00"/>
</svg>
