<svg width="100" height="100" viewBox="0 0 100 100" fill="none" xmlns="http://www.w3.org/2000/svg">
<path d="M31.8251 49.5916C31.8251 50.5884 31.9328 51.3966 32.1214 51.9893C32.3369 52.582 32.6063 53.2285 32.9835 53.9289C33.1182 54.1445 33.1721 54.36 33.1721 54.5486C33.1721 54.818 33.0104 55.0874 32.6602 55.3568L30.963 56.4882C30.7206 56.6499 30.4781 56.7307 30.2626 56.7307C29.9932 56.7307 29.7238 56.596 29.4544 56.3535C29.0772 55.9494 28.754 55.5184 28.4846 55.0874C28.2152 54.6294 27.9458 54.1175 27.6494 53.4979C25.5481 55.9764 22.908 57.2156 19.7291 57.2156C17.4662 57.2156 15.6612 56.569 14.3412 55.2759C13.0211 53.9828 12.3477 52.2587 12.3477 50.1035C12.3477 47.8136 13.1558 45.9548 14.7992 44.5539C16.4425 43.1531 18.6246 42.4526 21.3994 42.4526C22.3154 42.4526 23.2582 42.5334 24.255 42.6681C25.2518 42.8028 26.2755 43.0184 27.3531 43.2608V41.2942C27.3531 39.2468 26.9221 37.819 26.0869 36.9839C25.2248 36.1487 23.7701 35.7446 21.6957 35.7446C20.7529 35.7446 19.783 35.8524 18.7863 36.0948C17.7895 36.3373 16.8197 36.6336 15.8768 37.0108C15.4457 37.1994 15.1224 37.3071 14.9339 37.361C14.7453 37.4149 14.6106 37.4418 14.5028 37.4418C14.1257 37.4418 13.9371 37.1724 13.9371 36.6067V35.2866C13.9371 34.8556 13.991 34.5323 14.1257 34.3438C14.2604 34.1552 14.5028 33.9666 14.88 33.778C15.8229 33.2931 16.9544 32.889 18.2744 32.5657C19.5944 32.2155 20.9953 32.0539 22.477 32.0539C25.6828 32.0539 28.0266 32.7813 29.5352 34.236C31.0169 35.6907 31.7712 37.8998 31.7712 40.8632V49.5916H31.8251ZM20.8876 53.6865C21.7766 53.6865 22.6925 53.5248 23.6623 53.2016C24.6322 52.8783 25.4942 52.2856 26.2216 51.4774C26.6527 50.9656 26.9759 50.3998 27.1376 49.7533C27.2992 49.1067 27.407 48.3255 27.407 47.4095V46.2781C26.6257 46.0895 25.7906 45.9278 24.9285 45.8201C24.0664 45.7123 23.2313 45.6584 22.3962 45.6584C20.5912 45.6584 19.2712 46.0087 18.3822 46.736C17.4931 47.4634 17.0621 48.4871 17.0621 49.8341C17.0621 51.1003 17.3854 52.0432 18.0589 52.6897C18.7054 53.3632 19.6483 53.6865 20.8876 53.6865ZM42.5202 56.596C42.0352 56.596 41.712 56.5152 41.4965 56.3266C41.2809 56.1649 41.0924 55.7878 40.9307 55.2759L34.5999 34.4515C34.4382 33.9127 34.3574 33.5625 34.3574 33.3739C34.3574 32.9429 34.5729 32.7004 35.004 32.7004H37.6441C38.1559 32.7004 38.5061 32.7813 38.6947 32.9698C38.9102 33.1315 39.0719 33.5086 39.2335 34.0205L43.7594 51.8546L47.962 34.0205C48.0967 33.4817 48.2583 33.1315 48.4738 32.9698C48.6894 32.8082 49.0665 32.7004 49.5514 32.7004H51.7066C52.2185 32.7004 52.5687 32.7813 52.7842 32.9698C52.9997 33.1315 53.1883 33.5086 53.2961 34.0205L57.5525 52.0701L62.2131 34.0205C62.3747 33.4817 62.5633 33.1315 62.7519 32.9698C62.9674 32.8082 63.3176 32.7004 63.8026 32.7004H66.3079C66.739 32.7004 66.9814 32.916 66.9814 33.3739C66.9814 33.5086 66.9545 33.6433 66.9276 33.805C66.9006 33.9666 66.8467 34.1821 66.739 34.4785L60.2465 55.3029C60.0849 55.8417 59.8963 56.1919 59.6808 56.3535C59.4653 56.5152 59.115 56.6229 58.6571 56.6229H56.3402C55.8284 56.6229 55.4782 56.5421 55.2626 56.3535C55.0471 56.1649 54.8586 55.8147 54.7508 55.2759L50.5751 37.8998L46.4264 55.249C46.2917 55.7878 46.1301 56.138 45.9146 56.3266C45.699 56.5152 45.3219 56.596 44.837 56.596H42.5202ZM77.1377 57.3234C75.7369 57.3234 74.336 57.1617 72.989 56.8384C71.642 56.5152 70.5914 56.1649 69.8909 55.7608C69.4599 55.5184 69.1636 55.249 69.0558 55.0065C68.948 54.7641 68.8942 54.4947 68.8942 54.2522V52.8783C68.8942 52.3126 69.1097 52.0432 69.5138 52.0432C69.6754 52.0432 69.8371 52.0701 69.9987 52.124C70.1603 52.1779 70.4028 52.2856 70.6722 52.3934C71.5881 52.7975 72.5849 53.1208 73.6356 53.3363C74.7131 53.5518 75.7638 53.6595 76.8414 53.6595C78.5386 53.6595 79.8586 53.3632 80.7746 52.7705C81.6905 52.1779 82.1754 51.3158 82.1754 50.2113C82.1754 49.4569 81.933 48.8373 81.4481 48.3255C80.9632 47.8136 80.0472 47.3556 78.7272 46.9246L74.8209 45.7123C72.8543 45.0927 71.3996 44.1768 70.5105 42.9645C69.6215 41.7791 69.1636 40.4591 69.1636 39.0582C69.1636 37.9267 69.406 36.93 69.8909 36.0679C70.3758 35.2058 71.0224 34.4515 71.8306 33.8588C72.6388 33.2392 73.5547 32.7813 74.6323 32.458C75.7099 32.1347 76.8414 32 78.0267 32C78.6194 32 79.239 32.0269 79.8317 32.1078C80.4513 32.1886 81.017 32.2963 81.5828 32.4041C82.1216 32.5388 82.6334 32.6735 83.1183 32.8351C83.6032 32.9968 83.9804 33.1584 84.2498 33.32C84.627 33.5356 84.8964 33.7511 85.058 33.9935C85.2196 34.2091 85.3005 34.5054 85.3005 34.8826V36.1487C85.3005 36.7145 85.0849 37.0108 84.6808 37.0108C84.4653 37.0108 84.1151 36.903 83.6571 36.6875C82.1216 35.9871 80.3974 35.6369 78.4847 35.6369C76.9491 35.6369 75.7369 35.8793 74.9017 36.3912C74.0666 36.903 73.6356 37.6843 73.6356 38.7888C73.6356 39.5431 73.9049 40.1897 74.4437 40.7015C74.9825 41.2134 75.9793 41.7252 77.4071 42.1832L81.2326 43.3955C83.1722 44.0151 84.5731 44.8772 85.4082 45.9817C86.2433 47.0863 86.6474 48.3524 86.6474 49.7533C86.6474 50.9117 86.405 51.9623 85.947 52.8783C85.4621 53.7942 84.8155 54.6024 83.9804 55.249C83.1453 55.9225 82.1485 56.4074 80.9901 56.7576C79.7778 57.1348 78.5116 57.3234 77.1377 57.3234Z" fill="#2B3137"/>
<path fill-rule="evenodd" clip-rule="evenodd" d="M82.2308 70.4159C73.3677 76.9623 60.4905 80.4375 49.4182 80.4375C33.9009 80.4375 19.9192 74.6993 9.35884 65.1626C8.52371 64.4083 9.27802 63.3846 10.2748 63.9773C21.6972 70.6045 35.7867 74.6185 50.3611 74.6185C60.1941 74.6185 70.997 72.5711 80.9377 68.3685C82.4194 67.695 83.6856 69.3383 82.2308 70.4159Z" fill="#2B3137"/>
<path fill-rule="evenodd" clip-rule="evenodd" d="M85.9211 66.2129C84.7897 64.7581 78.4319 65.5125 75.5493 65.8627C74.6873 65.9704 74.5526 65.2161 75.3338 64.6504C80.3985 61.0943 88.7229 62.118 89.6927 63.3034C90.6625 64.5157 89.4233 72.8401 84.6819 76.8271C83.9545 77.4468 83.2541 77.1235 83.5774 76.3153C84.655 73.6483 87.0526 67.6407 85.9211 66.2129Z" fill="#2B3137"/>
</svg>
