<svg width="100" height="100" viewBox="0 0 100 100" fill="none" xmlns="http://www.w3.org/2000/svg">
<path d="M59.4559 35.589L61.7942 35.6298L68.1475 29.1355L68.4555 26.3839C63.4162 21.7948 56.7629 19 49.4926 19C36.3298 19 25.2201 28.155 21.9316 40.5559C22.6251 40.0615 24.108 40.4323 24.108 40.4323L36.8031 38.2986C36.8031 38.2986 37.4555 37.1945 37.7863 37.2493C39.2708 35.5822 41.0796 34.2505 43.0968 33.3396C45.1141 32.4286 47.2952 31.9585 49.5005 31.9594C53.2646 31.9676 56.7321 33.3271 59.4559 35.5761V35.589Z" fill="#2B3137"/>
<path d="M77.0686 40.5824C75.5938 35.0209 72.554 30.1099 68.4512 26.3848L59.4551 35.5805C63.0594 38.5537 65.3715 43.1032 65.3715 48.196V49.819C69.7481 49.819 73.3034 53.4614 73.3034 57.9269C73.3034 62.4006 69.7401 66.0348 65.3715 66.0348H49.5077L47.9199 67.6672V77.3981L49.5077 79.0129H65.3715C70.8399 79.0052 76.0822 76.7813 79.9491 72.8289C83.816 68.8764 85.9918 63.5179 85.9997 57.9281C85.9917 50.7517 82.4637 44.4032 77.0686 40.5836V40.5824Z" fill="#2B3137"/>
<path d="M33.6296 79.0229H49.4843V66.0343H33.6296C32.5032 66.0345 31.3899 65.7872 30.3652 65.3091L28.0759 66.0261L21.7226 72.5204L21.166 74.7124C24.7463 77.5043 29.1253 79.0157 33.6285 79.0135L33.6296 79.0229Z" fill="#2B3137"/>
<path d="M33.6282 36.8501C28.1598 36.8578 22.9175 39.0817 19.0506 43.0341C15.1837 46.9866 13.0078 52.3451 13 57.9349C13 64.7825 16.2086 70.871 21.1737 74.728L30.3717 65.3258C28.9795 64.6841 27.7979 63.6455 26.9686 62.3346C26.1393 61.0237 25.6976 59.4961 25.6963 57.9349C25.6963 53.4612 29.2596 49.827 33.6282 49.827C36.8448 49.827 39.6096 51.8091 40.8598 54.6073L50.0578 45.2052C46.2857 40.1299 40.3282 36.8501 33.6293 36.8501H33.6282Z" fill="#2B3137"/>
</svg>
