<svg width="100" height="100" viewBox="0 0 100 100" fill="none" xmlns="http://www.w3.org/2000/svg">
<path d="M80.8333 58.3016C80.4546 57.1726 79.4627 56.3863 78.1799 56.1976C77.5751 56.1087 76.8824 56.1466 76.0626 56.313C74.6338 56.6032 73.5738 56.7137 72.8002 56.735C75.7202 51.8818 78.0946 46.3474 79.4615 41.1377C81.6718 32.7137 80.4906 28.8761 79.1104 27.1402C75.4578 22.5456 70.1286 20.0774 63.6995 20.0018C60.2699 19.9605 57.2591 20.6272 55.6884 21.1065C54.2261 20.8525 52.6537 20.7107 51.0039 20.6845C47.9112 20.6359 45.1787 21.2996 42.8438 22.6636C41.5512 22.2333 39.4766 21.6267 37.0808 21.2396C31.446 20.3289 26.9045 21.0385 23.5827 23.3487C19.5602 26.1458 17.6955 31.0055 18.0404 37.793C18.1499 39.948 19.3745 46.5048 21.3026 52.723C22.4107 56.2972 23.5923 59.2652 24.8146 61.5455C26.5481 64.779 28.4029 66.6831 30.4851 67.367C31.6522 67.7497 33.7727 68.0178 36.003 66.1892C36.2857 66.5262 36.6629 66.8611 37.1634 67.1722C37.7991 67.5668 38.5764 67.8893 39.3527 68.0804C42.1504 68.7689 44.7709 68.5967 47.0066 67.6317C47.0204 68.0231 47.031 68.3971 47.0399 68.7201C47.0547 69.2439 47.0695 69.7575 47.089 70.2379C47.2215 73.4857 47.446 76.011 48.111 77.7779C48.1475 77.875 48.1966 78.0232 48.2484 78.1803C48.5802 79.1803 49.135 80.8545 50.5465 82.1656C52.0082 83.5238 53.7761 83.9403 55.3954 83.9403C56.2075 83.9403 56.9823 83.8354 57.6619 83.6921C60.0844 83.1809 62.8356 82.4024 64.8259 79.6126C66.7076 76.9753 67.6223 73.0031 67.7878 66.7443C67.8093 66.5673 67.829 66.3983 67.848 66.2373L67.8875 65.9065L68.3308 65.9449L68.445 65.9524C70.9124 66.0631 73.9293 65.5481 75.7822 64.7008C77.2462 64.032 81.9379 61.5936 80.8333 58.3016" fill="black"/>
<path d="M76.6148 58.9419C69.2784 60.4317 68.7739 57.9866 68.7739 57.9866C76.5198 46.6718 79.758 32.3093 76.9638 28.7941C69.3403 19.2054 56.1439 23.7403 55.9236 23.8578L55.8528 23.8705C54.4033 23.5742 52.7813 23.3979 50.9581 23.3685C47.6387 23.3151 45.1205 24.2253 43.2097 25.6517C43.2097 25.6517 19.6686 16.1046 20.7636 37.6589C20.9965 42.2442 27.4399 72.3546 35.1251 63.2599C37.9341 59.9342 40.6484 57.1223 40.6484 57.1223C41.9963 58.0038 43.6101 58.4535 45.3018 58.2921L45.4333 58.1823C45.3924 58.5951 45.4111 58.999 45.4859 59.4771C43.506 61.6547 44.0879 62.0369 40.1301 62.8391C36.1252 63.6516 38.4778 65.098 40.0139 65.4763C41.8761 65.9346 46.1842 66.5839 49.0951 62.5724L48.9792 63.0302C49.7548 63.6419 50.2994 67.0087 50.2082 70.061C50.1169 73.113 50.056 75.2085 50.667 76.8453C51.2785 78.4821 51.8876 82.1648 57.0907 81.0674C61.438 80.1501 63.691 77.7734 64.0045 73.8088C64.2268 70.9903 64.7302 71.4071 64.7618 68.8871L65.1656 67.6942C65.6311 63.8736 65.2397 62.6409 67.9179 63.2142L68.5692 63.2706C70.5402 63.3587 73.1205 62.9583 74.6349 62.2655C77.8956 60.7759 79.8296 58.2884 76.6143 58.9419H76.6148" fill="#2B3137"/>
<path d="M44.5882 39.7095C43.9271 39.6189 43.3284 39.7027 43.0254 39.9286C42.8552 40.0556 42.8024 40.2027 42.7881 40.304C42.7501 40.5723 42.9411 40.8691 43.0585 41.0221C43.3905 41.4553 43.8755 41.7531 44.3556 41.8186C44.4251 41.8283 44.4944 41.8327 44.5633 41.8327C45.3638 41.8327 46.0917 41.219 46.1559 40.7661C46.236 40.1989 45.3995 39.8207 44.5882 39.7098V39.7095ZM66.4898 39.7275C66.4267 39.2828 65.623 39.1561 64.8602 39.2605C64.0985 39.3649 63.3599 39.7035 63.4216 40.1491C63.4709 40.4956 64.1066 41.0872 64.859 41.0872C64.9227 41.0872 64.9868 41.083 65.0514 41.0741C65.5537 41.0056 65.9222 40.6916 66.0974 40.5107C66.3638 40.2348 66.5182 39.9274 66.4898 39.7275" fill="white"/>
<path d="M79.0541 58.7721C78.7743 57.9394 77.8739 57.6716 76.378 57.9756C71.9365 58.878 70.3459 58.253 69.8236 57.8744C73.276 52.6969 76.1161 46.4384 77.6482 40.5992C78.374 37.8332 78.7748 35.2644 78.8076 33.1706C78.8439 30.8726 78.4462 29.1839 77.6263 28.1523C74.3202 23.9936 69.4679 21.7628 63.5943 21.7016C59.5564 21.6569 56.1447 22.6742 55.4833 22.9603C54.0906 22.6193 52.5722 22.41 50.9192 22.3833C47.8879 22.335 45.2676 23.0494 43.0983 24.5057C42.1559 24.1604 39.7207 23.3374 36.7424 22.8651C31.5936 22.0491 27.5021 22.6674 24.5824 24.7037C21.0984 27.1335 19.4901 31.477 19.8016 37.6132C19.9065 39.6776 21.1014 46.0285 22.9871 52.1105C25.4692 60.1156 28.1674 64.6473 31.0063 65.5795C31.3386 65.6886 31.7217 65.7648 32.1442 65.7648C33.1798 65.7648 34.4495 65.3054 35.7705 63.7419C37.3817 61.8392 39.0485 59.9826 40.7686 58.1745C41.8846 58.7641 43.1106 59.0934 44.3645 59.1265C44.367 59.1588 44.3702 59.1911 44.3732 59.2231C44.1573 59.4765 43.9459 59.7335 43.7392 59.9941C42.8703 61.0799 42.6895 61.306 39.8929 61.8728C39.0973 62.0345 36.9844 62.4631 36.9534 63.9212C36.9198 65.5142 39.451 66.1832 39.7394 66.2542C40.7444 66.5019 41.7127 66.624 42.636 66.624C44.8816 66.624 46.8578 65.8974 48.437 64.4916C48.3884 70.1707 48.629 75.7668 49.3217 77.4718C49.889 78.8677 51.2749 82.2789 55.6526 82.2787C56.2949 82.2787 57.0019 82.2051 57.7797 82.0409C62.3486 81.0768 64.3327 79.0889 65.1001 74.7063C65.5108 72.3641 66.2156 66.7712 66.5472 63.7711C67.2468 63.986 68.1474 64.0843 69.1211 64.0841C71.1518 64.0841 73.495 63.6594 74.9645 62.9879C76.6154 62.2332 79.5943 60.3812 79.0541 58.7721V58.7721ZM68.1738 38.4996C68.1587 39.3852 68.0349 40.1893 67.9037 41.0286C67.7623 41.9312 67.6163 42.8644 67.5795 43.9973C67.5433 45.0998 67.6831 46.246 67.8183 47.3546C68.0917 49.5936 68.3721 51.8987 67.2865 54.1732C67.1061 53.8586 66.9455 53.5335 66.8054 53.1996C66.6705 52.8776 66.3774 52.3604 65.9716 51.6445C64.3931 48.8576 60.6965 42.3314 62.5889 39.6684C63.1525 38.8757 64.5831 38.0608 68.1738 38.4996V38.4996ZM63.8213 23.495C69.0841 23.6094 73.2471 25.5475 76.1945 29.2553C78.4551 32.0992 75.9658 45.0396 68.7594 56.2034C68.687 56.1126 68.6141 56.0222 68.5409 55.9321L68.4496 55.8199C70.3118 52.7924 69.9477 49.7969 69.6236 47.1412C69.4904 46.0513 69.3645 45.0219 69.3966 44.0549C69.4297 43.0301 69.5673 42.151 69.7005 41.301C69.8641 40.2536 70.0306 39.1698 69.9847 37.8922C70.019 37.7582 70.0328 37.5998 70.0148 37.4119C69.8976 36.1867 68.4767 32.5201 65.5806 29.2014C63.9964 27.3861 61.6862 25.3547 58.5319 23.9846C59.8886 23.7078 61.744 23.4496 63.8213 23.495V23.495ZM34.3725 62.5977C32.9171 64.3204 31.9121 63.9901 31.5816 63.8818C29.428 63.1747 26.9291 58.6937 24.7259 51.5881C22.8196 45.4398 21.7055 39.2573 21.6172 37.5236C21.339 32.0407 22.6891 28.2195 25.6303 26.1661C30.417 22.8245 38.2867 24.8246 41.4489 25.8389C41.4036 25.8831 41.3562 25.9244 41.3113 25.9694C36.122 31.1283 36.2451 39.9426 36.258 40.4814C36.2575 40.6893 36.2752 40.9836 36.2994 41.3884C36.3887 42.871 36.555 45.6302 36.1109 48.7549C35.6985 51.6585 36.6078 54.5005 38.6052 56.5523C38.8102 56.7625 39.0256 56.9625 39.2507 57.1517C38.3617 58.089 36.4294 60.1619 34.3725 62.5977V62.5977ZM39.9178 55.3141C38.3079 53.6603 37.5767 51.3601 37.9115 49.0026C38.3802 45.7018 38.2073 42.8271 38.1143 41.2826C38.1012 41.0664 38.0896 40.877 38.0829 40.7277C38.841 40.0659 42.354 38.213 44.8594 38.7781C46.0025 39.0358 46.6991 39.8022 46.9888 41.1203C48.4876 47.945 47.1871 50.7894 46.1421 53.0753C45.9268 53.5462 45.7233 53.9913 45.5496 54.4517L45.4149 54.8077C45.074 55.7077 44.7567 56.5445 44.5601 57.3391C42.8486 57.3343 41.1838 56.6145 39.9178 55.3138V55.3141ZM40.1805 64.5178C39.6807 64.3949 39.2313 64.1815 38.9675 64.0045C39.1878 63.9025 39.5798 63.7636 40.2597 63.6256C43.5497 62.959 44.0579 62.4884 45.1675 61.1015C45.4218 60.7834 45.7102 60.423 46.1096 59.9839L46.1101 59.9835C46.7048 59.3278 46.9769 59.439 47.4703 59.6406C47.8702 59.8033 48.2597 60.2967 48.4175 60.8397C48.4923 61.0962 48.5762 61.5828 48.3016 61.9617C45.9838 65.1565 42.6061 65.1155 40.1805 64.5178V64.5178ZM57.3989 80.291C53.3739 81.14 51.9488 79.1183 51.0097 76.8072C50.4036 75.3151 50.1056 68.5869 50.317 61.1566C50.3197 61.0578 50.3054 60.9624 50.2778 60.8725C50.2531 60.6951 50.2155 60.5196 50.1653 60.3475C49.851 59.2663 49.0851 58.362 48.1662 57.987C47.8011 57.8382 47.1311 57.565 46.3259 57.7678C46.4976 57.0713 46.7954 56.2847 47.1183 55.4331L47.2537 55.0749C47.4061 54.671 47.5976 54.2526 47.7999 53.8096C48.8934 51.4181 50.391 48.1424 48.7656 40.7422C48.1568 37.9704 46.1236 36.6168 43.0415 36.9313C41.1939 37.1195 39.5033 37.8534 38.6602 38.2742C38.4789 38.3646 38.3131 38.452 38.1582 38.537C38.3935 35.7443 39.2826 30.5251 42.6084 27.2229C44.7025 25.1442 47.4912 24.1174 50.8891 24.1728C57.5841 24.2806 61.8774 27.6629 64.3004 30.4816C66.3883 32.9103 67.5188 35.3569 67.97 36.6766C64.5769 36.3368 62.2692 36.9961 61.0994 38.6426C58.5543 42.2241 62.4917 49.1752 64.384 52.516C64.7311 53.1282 65.0305 53.6574 65.1248 53.8823C65.741 55.3524 66.5388 56.334 67.1212 57.0504C67.2998 57.2699 67.473 57.4829 67.6047 57.6689C66.577 57.9606 64.7311 58.6345 64.8993 62.0029C64.7636 63.6931 63.7988 71.6064 63.3087 74.4023C62.6616 78.0959 61.2809 79.4716 57.3989 80.2912V80.291ZM74.1991 61.3647C73.1482 61.8448 71.3896 62.205 69.719 62.2824C67.8738 62.3674 66.9345 62.0789 66.7134 61.9014C66.6098 59.8023 67.4034 59.583 68.2434 59.3508C68.3753 59.3144 68.5041 59.2787 68.6284 59.236C68.7057 59.2979 68.7903 59.3593 68.883 59.4196C70.3661 60.3832 73.0113 60.4871 76.7459 59.7282L76.7868 59.7202C76.2831 60.1838 75.4212 60.806 74.1991 61.3647Z" fill="white"/>
</svg>
