<svg width="102" height="100" viewBox="0 0 102 100" fill="none" xmlns="http://www.w3.org/2000/svg">
<g filter="url(#filter0_d_1185_735)">
<path d="M4 71.2067H7.09677V57.3255L11.8909 69.431C12.4563 70.8903 13.2311 71.4147 14.7494 71.4147C16.2677 71.4147 17.0122 70.8961 17.5786 69.431L22.3732 57.3255V71.2119H25.4704V57.3484C25.4704 55.9959 24.993 55.3418 24.0108 55.0041C21.6585 54.1702 20.0801 54.8915 19.3659 56.6948L14.6613 68.642L10.1045 56.6896C9.41969 54.8863 7.81187 54.165 5.45957 54.9989C4.47643 55.3371 4 55.9912 4 57.3432V71.2067ZM28.0444 59.9043H31.1402V67.5553C31.1113 67.9712 31.2577 68.9468 32.9541 68.9766C33.8198 68.9922 39.6342 68.9766 39.6884 68.9766V59.8662H42.7911C42.8049 59.8662 42.7879 72.2882 42.7883 72.3413C42.8053 75.4049 39.4405 76.0704 37.89 76.122H28.1118V73.7558L37.9075 73.7553C39.9004 73.5156 39.6654 72.3914 39.6654 72.0125V71.09H33.0836C30.0212 71.0587 28.0715 69.5405 28.0471 67.7945C28.0448 67.6381 28.1132 59.9793 28.0453 59.9038L28.0444 59.9043Z" fill="#2B3137"/>
<path d="M45.1777 71.2066H54.0811C55.123 71.2066 56.136 70.9591 56.9406 70.5301C58.2808 69.8317 58.9358 68.8848 58.9358 67.6449V65.0754C58.9358 64.0607 58.1913 63.1142 56.7327 62.483C55.9584 62.1443 55.0055 61.9645 54.0825 61.9645H50.3303C49.08 61.9645 48.4843 61.536 48.3355 60.5896C48.3057 60.477 48.3057 60.3811 48.3057 60.2737V58.6737C48.3057 58.5835 48.3057 58.4928 48.3355 58.3803C48.4843 57.6589 48.812 57.4557 49.9135 57.3379C50.003 57.3379 50.1219 57.315 50.2119 57.315H59.0556V54.9712H50.3606C49.1099 54.9712 48.4549 55.0614 47.8591 55.2641C46.0112 55.9182 45.2071 56.9606 45.2071 58.7639V60.8152C45.2071 62.3934 46.786 63.7459 49.4353 64.0612C49.7336 64.0836 50.031 64.106 50.3285 64.106H53.5446C53.6639 64.106 53.7832 64.106 53.8723 64.1289C54.8545 64.2191 55.2722 64.4218 55.5696 64.8273C55.7532 65.0358 55.8083 65.2338 55.8083 65.4527V67.5041C55.8083 67.7522 55.6596 68.0681 55.3617 68.338C55.0936 68.609 54.647 68.7889 54.0513 68.8342C53.9319 68.8342 53.8429 68.8566 53.724 68.8566H45.1777V71.2009V71.2066ZM78.254 67.1268C78.254 69.5388 79.832 70.8913 83.0183 71.1618C83.3155 71.1879 83.6134 71.2029 83.9114 71.2066H91.9813V68.8623H83.8518C82.0356 68.8623 81.3503 68.3438 81.3503 67.1039V54.9759H78.2535V67.1258L78.254 67.1268ZM60.9113 67.2488V58.8915C60.9113 56.7682 62.224 55.4804 64.82 55.0739C65.0968 55.029 65.3761 55.0063 65.6558 55.0061H71.534C71.8236 55.0063 72.1128 55.029 72.3997 55.0739C74.9957 55.4804 76.3084 56.7677 76.3084 58.8915V67.2488C76.3084 68.9713 75.7507 69.8932 74.4655 70.4942L77.516 73.6213H73.9203L71.4523 71.0914L68.9678 71.2702H65.6558C65.0889 71.2702 64.4923 71.1795 63.8355 70.9763C61.8618 70.3665 60.9117 69.1917 60.9117 67.2488H60.9113ZM64.2541 67.0403C64.2541 67.1534 64.2839 67.2659 64.3137 67.402C64.4973 68.3735 65.2982 68.9155 66.5168 68.9155H69.3304L66.7463 66.2663H70.342L72.5911 68.5767C73.0064 68.3255 73.2795 67.9409 73.3713 67.4473C73.4012 67.3347 73.4012 67.2217 73.4012 67.1086V59.0953C73.4012 59.0052 73.4012 58.8869 73.3713 58.779C73.1877 57.8758 72.3863 57.3561 71.193 57.3561H66.5224C65.1454 57.3561 64.255 58.0337 64.255 59.0953V67.0465L64.2541 67.0403Z" fill="#2B3137"/>
<path d="M94.7088 51.0864C92.8054 51.028 91.3509 51.2287 90.1079 51.8239C89.7545 51.9933 89.1914 51.9974 89.1335 52.5004C89.3277 52.7313 89.3584 53.0763 89.5122 53.3603C89.8091 53.906 90.3108 54.6372 90.7574 55.0198C91.2458 55.4383 91.7488 55.8865 92.2734 56.2498C93.2052 56.895 94.2452 57.2635 95.1421 57.9092C95.6708 58.2897 96.1959 58.7692 96.7118 59.1997C96.9666 59.4123 97.1387 59.7428 97.4691 59.8757V59.8142C97.2947 59.5624 97.2502 59.2164 97.0905 58.9542L96.3869 58.1552C95.6984 57.1129 94.8254 56.2076 93.8969 55.4503C93.1565 54.8467 91.4991 54.0316 91.1902 53.0528L91.1361 52.9913C91.6611 52.9236 92.2757 52.7083 92.7609 52.5614C93.5747 52.3138 94.3021 52.3774 95.143 52.1314L96.2799 51.7624V51.5164C95.8549 51.0213 95.552 50.3661 95.0888 49.9184C93.8771 48.7458 92.5539 47.5757 91.1921 46.5985C90.4366 46.0564 89.503 45.7052 88.7021 45.246C88.4326 45.0917 87.9594 45.0115 87.7818 44.754C87.3614 44.1453 87.1323 43.3729 86.8078 42.6693C86.1285 41.1839 85.4612 39.5609 84.859 37.9979C84.4482 36.932 84.1797 35.8808 83.6684 34.9244C81.2105 30.3359 78.5645 27.5663 74.4667 24.8447C73.5946 24.2662 72.5449 24.0369 71.4351 23.7382L69.6487 23.6152C69.2852 23.4433 68.907 22.9377 68.5655 22.6927C67.2078 21.7181 63.7255 19.6006 62.7199 22.38C62.0851 24.138 63.6686 25.8532 64.2354 26.7444C64.6329 27.3699 65.1424 28.0698 65.426 28.7729C65.6128 29.2347 65.6454 29.698 65.8052 30.1869C66.1985 31.3856 66.5409 32.7005 67.0499 33.8133C67.307 34.3762 67.5906 34.9693 67.916 35.4727C68.1157 35.7818 68.4576 35.9178 68.5113 36.3952C68.1772 36.9268 68.1579 37.7503 67.9697 38.4237C67.1238 41.4528 67.4428 45.2173 68.6734 47.4595C69.0511 48.1474 69.9402 49.6234 71.1634 49.0574C72.2328 48.5623 71.9895 47.03 72.3003 45.677C72.3691 45.3695 72.3269 45.1454 72.4627 44.9395V45.001L73.4372 47.2135C74.1578 48.5321 75.4383 49.9106 76.5225 50.8409C77.0847 51.323 77.5322 52.1569 78.2547 52.4389V52.3774H78.2005C78.0596 52.1272 77.8393 52.0245 77.6589 51.8249C77.2353 51.3532 76.7639 50.7669 76.4137 50.227C75.4269 48.7061 74.5557 47.0425 73.7617 45.3096C73.3825 44.4825 73.0525 43.5699 72.7335 42.7282C72.6105 42.4035 72.6119 41.913 72.3549 41.7447C72.0047 42.3618 71.4888 42.86 71.218 43.5886C70.7847 44.753 70.7287 46.1727 70.5685 47.6455C70.4735 47.6841 70.5157 47.6575 70.4602 47.707C69.7065 47.5006 69.4412 46.6193 69.1613 45.8631C68.4526 43.9503 68.3213 40.8722 68.9446 38.6718C69.1053 38.1026 69.835 36.3087 69.5399 35.7828C69.399 35.258 68.9341 34.9489 68.6738 34.5528C68.3525 34.0577 68.0303 33.4041 67.8077 32.8319C67.2276 31.3413 66.9568 29.6683 66.3463 28.1605C66.0544 27.4402 65.5614 26.7116 65.1557 26.0758C64.7068 25.3669 64.2042 24.8437 63.8568 23.991C63.7329 23.6861 63.5649 23.1988 63.7485 22.8845C63.766 22.7942 63.8059 22.7115 63.8635 22.6461C63.9211 22.5808 63.9939 22.5354 64.0734 22.5155C64.3874 22.2409 65.2622 22.6067 65.589 22.7615C66.4565 23.1712 67.1817 23.561 67.917 24.114C68.2704 24.3746 68.627 24.8937 69.0534 25.0365H69.5399C70.3018 25.2356 71.1556 25.0991 71.867 25.344C73.1255 25.7782 74.2528 26.4541 75.2772 27.188C78.3974 29.4249 80.948 32.6093 82.693 36.4129C82.9739 37.0243 83.0951 37.6085 83.3425 38.2569C83.8414 39.5599 84.4698 40.9113 84.9664 42.1903C85.4621 43.4672 85.944 44.7545 86.6444 45.8167C87.0125 46.3744 88.4345 46.6746 89.0803 46.9842C89.5333 47.2015 90.275 47.4282 90.7042 47.7216C91.5235 48.2829 92.3175 48.9516 93.0863 49.5666C93.4705 49.8741 94.6514 50.548 94.7102 51.1031L94.7088 51.0864Z" fill="#2B3137"/>
<path fill-rule="evenodd" clip-rule="evenodd" d="M70.5135 27.668C70.1165 27.6597 69.836 27.717 69.5391 27.791V27.8525H69.5932C69.7823 28.2945 70.1165 28.5785 70.3505 28.959L70.8921 30.2495L70.9463 30.188C71.2814 29.9196 71.4351 29.4906 71.4328 28.8355C71.2983 28.675 71.2786 28.4738 71.162 28.282C71.0074 28.0266 70.703 27.8817 70.5126 27.667L70.5135 27.668Z" fill="#2B3137"/>
<path fill-rule="evenodd" clip-rule="evenodd" d="M93.4355 68.7949C93.4355 70.3429 94.5128 71.3863 95.7176 71.3863C96.9225 71.3863 97.9997 70.3429 97.9997 68.7949C97.9997 67.247 96.9225 66.2036 95.7176 66.2036C94.5128 66.2036 93.4355 67.247 93.4355 68.7949ZM97.4884 68.7949C97.4884 69.9697 96.6976 70.8474 95.7167 70.8474C94.7253 70.8474 93.945 69.9697 93.945 68.7949C93.945 67.6202 94.7244 66.7425 95.7167 66.7425C96.6966 66.7425 97.4884 67.6202 97.4884 68.7949ZM96.3317 70.2741H96.8426L96.0944 68.9753C96.4961 68.9268 96.7999 68.7053 96.7999 68.1664C96.7999 67.5649 96.4648 67.3169 95.8204 67.3169H94.8038V70.2746H95.2421V68.9961H95.6497L96.3313 70.2746L96.3317 70.2741ZM95.2421 68.5802V67.7307H95.747C96.0086 67.7307 96.3253 67.7859 96.3253 68.132C96.3253 68.5463 96.0394 68.5813 95.7103 68.5813H95.2421V68.5802Z" fill="#2B3137"/>
</g>
<defs>
<filter id="filter0_d_1185_735" x="0" y="21" width="102" height="63.1221" filterUnits="userSpaceOnUse" color-interpolation-filters="sRGB">
<feFlood flood-opacity="0" result="BackgroundImageFix"/>
<feColorMatrix in="SourceAlpha" type="matrix" values="0 0 0 0 0 0 0 0 0 0 0 0 0 0 0 0 0 0 127 0" result="hardAlpha"/>
<feOffset dy="4"/>
<feGaussianBlur stdDeviation="2"/>
<feComposite in2="hardAlpha" operator="out"/>
<feColorMatrix type="matrix" values="0 0 0 0 0 0 0 0 0 0 0 0 0 0 0 0 0 0 0.25 0"/>
<feBlend mode="normal" in2="BackgroundImageFix" result="effect1_dropShadow_1185_735"/>
<feBlend mode="normal" in="SourceGraphic" in2="effect1_dropShadow_1185_735" result="shape"/>
</filter>
</defs>
</svg>
