<svg width="62" height="44" viewBox="0 0 62 44" fill="none" xmlns="http://www.w3.org/2000/svg">
<path d="M5.65163 35.9452C8.45285 36.0852 14.3634 35.6931 16.1562 34.1244C17.6502 36.5988 24.2237 41.3795 28.4816 41.8277M12.5146 21.6589H5.23145V15.2161H41.5073V21.6589H34.3641M12.5146 21.6589V8.49319H19.7978M12.5146 21.6589H19.7978M34.3641 8.49319V21.6589M34.3641 8.49319V1.77026H27.081V21.6589M34.3641 8.49319H19.7978M34.3641 21.6589H27.081M27.081 21.6589H19.7978M23.2993 16.6167V18.4375V20.2583M32.4033 16.6167V18.4375V20.2583M38.0057 16.6167V18.4375V20.2583M36.325 16.6167V18.4375V20.2583M21.7587 16.6167V18.4375V20.2583M30.7226 16.6167V18.4375V20.2583M29.0418 16.6167V18.4375V20.2583M24.9801 16.6167V18.4375V20.2583M39.8265 16.6167V18.4375V20.2583M19.7978 8.49319V21.6589M16.1562 16.6167V20.2583M14.4755 16.6167V20.2583M17.8369 16.6167V20.2583M10.5538 16.6167V20.2583M32.4033 9.8938V13.5354M7.05224 16.6167V20.2583M14.4755 9.8938V13.5354M23.2993 9.8938V13.5354M24.9801 9.8938V13.5354M29.0418 9.8938V13.5354M29.0418 3.03081V6.6724M30.7226 9.8938V13.5354M32.4033 3.03081V6.6724M30.7226 3.03081V6.6724M21.7587 9.8938V13.5354M16.1562 9.8938V13.5354M17.8369 9.8938V13.5354M8.87303 16.6167V20.2583" stroke="#FFF9F9" stroke-width="3"/>
<path d="M1.30957 21.659H44.1087C45.1514 21.2388 47.2653 20.3705 47.379 20.2584C47.5212 20.1183 43.3977 14.3758 48.09 9.61377" stroke="white" stroke-width="3"/>
<path d="M1.7291 21.519C0.982106 26.0476 2.70948 37.2058 11.9536 40.5673C30.5988 47.3474 49.2099 34.2645 50.7506 22.9196C53.6451 23.1063 59.5182 22.3313 59.8544 17.7373C58.7339 16.1687 54.2519 16.2434 52.151 16.4768C52.4872 14.2358 49.2097 11.1545 47.6691 9.89392" stroke="white" stroke-width="3"/>
<circle cx="20.4984" cy="30.7629" r="2.10092" fill="white"/>
<path d="M21.4794 30.7629C21.4794 31.3044 21.0405 31.7433 20.499 31.7433C19.9575 31.7433 19.5186 31.3044 19.5186 30.7629C19.5186 30.2214 19.9575 29.7825 20.499 29.7825C21.0405 29.7825 19.9387 30.7629 21.4794 30.7629Z" fill="black"/>
</svg>
