<svg width="104" height="40" viewBox="0 0 104 40" fill="none" xmlns="http://www.w3.org/2000/svg">
<g clip-path="url(#clip0_1689_292)">
<path d="M100.776 13.6229V13.8004H101.211V15.0428H101.384V13.8004H101.819V13.6229H100.776ZM103.469 13.6229L102.948 14.4216L102.427 13.6229H102.253V15.0428H102.427V13.9779L102.948 14.7766L103.469 13.9779V15.0428H103.643V13.6229H103.469Z" fill="white"/>
<path d="M46.0488 19.9236C46.0488 16.1076 48.8286 13.0903 52.8246 13.0903C55.2569 13.0903 56.7336 13.889 57.9498 15.1314L56.1256 17.2613C55.17 16.3739 54.1276 15.7527 52.8246 15.7527C50.6529 15.7527 49.0892 17.6163 49.0892 19.8349C49.0892 22.1422 50.6529 24.0059 52.8246 24.0059C54.3013 24.0059 55.17 23.3846 56.2124 22.4972L58.0367 24.3608C56.7336 25.7807 55.2569 26.7569 52.7377 26.7569C48.9155 26.7569 46.0488 23.7396 46.0488 19.9236Z" fill="white"/>
<path d="M61.251 13.3567H64.1176V18.5038H69.4166V13.3567H72.1964V26.4908H69.4166V21.2549H64.1176V26.4908H61.251V13.3567Z" fill="white"/>
<path d="M75.6709 13.3567H85.4871V15.9303H78.5376V18.5926H84.6184V21.1662H78.5376V23.9172H85.5739V26.4908H75.6709V13.3567Z" fill="white"/>
<path d="M89.3096 13.3567H99.1257V15.9303H92.0894V18.7701H98.3439V21.4324H92.0894V26.4908H89.3096V13.3567Z" fill="white"/>
<path d="M19.4674 28.7093C14.6897 28.7093 10.8675 24.8046 10.8675 19.9237C10.8675 15.0428 14.6897 11.138 19.4674 11.138C23.3765 11.138 26.6775 13.8003 27.7199 17.5276H31.0209C29.9785 11.9367 25.2008 7.85449 19.4674 7.85449C12.9523 7.85449 7.65332 13.2679 7.65332 19.9237C7.65332 26.5795 12.9523 31.9929 19.4674 31.9929C25.2008 31.9929 29.9785 27.8219 31.1078 22.3198H27.8068C26.6775 26.047 23.3765 28.7093 19.4674 28.7093Z" fill="white"/>
<path d="M13.6475 25.8695C15.1242 27.3781 17.2091 28.3543 19.4676 28.3543V24.8045C18.1646 24.8045 16.9485 24.2721 16.0798 23.3846L13.6475 25.8695Z" fill="white"/>
<path d="M11.2148 19.9237C11.2148 21.1661 11.4754 22.2311 11.9098 23.296L15.0371 21.8761C14.7765 21.2549 14.6027 20.6337 14.6027 19.9237C14.6027 17.2614 16.7744 15.0428 19.3805 15.0428V11.493C14.9502 11.493 11.2148 15.309 11.2148 19.9237Z" fill="white"/>
<path d="M22.4212 12.1144L21.2051 15.3979C22.2475 15.8416 23.0293 16.5516 23.6374 17.5278H27.2859C26.5909 15.0429 24.7667 13.0018 22.4212 12.1144Z" fill="white"/>
<path d="M21.2051 24.4498L22.4212 27.7333C24.7667 26.8459 26.5909 24.8048 27.2859 22.3199H23.5505C23.0293 23.2961 22.2475 24.0948 21.2051 24.4498Z" fill="white"/>
<path d="M19.4675 36.164C15.1241 36.164 11.1282 34.3004 8.26151 31.3718L6.00293 33.6792C9.47767 37.2289 14.2554 39.3588 19.5544 39.3588C29.2837 39.3588 37.3624 31.9043 38.4917 22.3199H35.1907C33.9746 30.1294 27.3726 36.164 19.4675 36.164Z" fill="white"/>
<path d="M19.4672 3.68355C23.0288 3.68355 26.3298 4.92597 28.9359 6.87834L30.847 4.21602C27.7197 1.81993 23.7238 0.400024 19.4672 0.400024C11.3884 0.400024 4.43897 5.54718 1.65918 12.8242L4.69958 14.0666C6.95815 8.03201 12.7783 3.68355 19.4672 3.68355Z" fill="white"/>
<path d="M35.1902 17.5276H38.4912C38.1437 14.6878 37.1882 11.9367 35.7114 9.62939L32.9316 11.4043C34.0609 13.1792 34.8427 15.2203 35.1902 17.5276Z" fill="white"/>
<path d="M31.455 17.5277H34.756C33.8873 11.9368 30.152 7.23337 25.1136 5.28101L23.8975 8.38705C27.7197 9.80695 30.6732 13.268 31.455 17.5277Z" fill="white"/>
<path d="M19.467 7.41085V4.12732C12.9519 4.12732 7.30546 8.29829 5.04688 14.2441L8.08727 15.3978C9.82464 10.6944 14.2549 7.41085 19.467 7.41085Z" fill="white"/>
<path d="M7.21902 19.9237H4.00488C4.00488 26.5795 8.00083 32.2591 13.7342 34.5665L14.9503 31.4604C10.4331 29.6855 7.21902 25.1596 7.21902 19.9237Z" fill="white"/>
<path d="M19.4678 32.4368V35.7203C27.1991 35.7203 33.6273 29.9519 34.7566 22.3199H31.4556C30.3263 28.0883 25.3748 32.4368 19.4678 32.4368Z" fill="white"/>
<path d="M2.00695 27.8219C0.877656 25.2484 0.356445 22.586 0.356445 19.9237H3.57058C3.57058 22.1423 4.00492 24.3609 4.87361 26.4908L2.00695 27.8219Z" fill="white"/>
</g>
<defs>
<clipPath id="clip0_1689_292">
<rect width="103.287" height="39.0474" fill="white" transform="translate(0.356445 0.400024)"/>
</clipPath>
</defs>
</svg>
