<svg width="102" height="39" viewBox="0 0 102 39" fill="none" xmlns="http://www.w3.org/2000/svg">
<path d="M39.9013 15.5593H36.6191V13.6H45.4084V15.5593H42.1263V25.3648H39.9022L39.9013 15.5593ZM47.4337 23.7638C48.3251 23.7594 49.2112 23.623 50.0634 23.3582L50.4021 24.9806C49.3903 25.3514 48.3214 25.5421 47.2439 25.544C44.5411 25.544 43.6069 24.296 43.6069 22.2279V19.9762C43.6069 18.1578 44.4092 16.5889 47.1708 16.5889C49.9323 16.5889 50.5581 18.1934 50.5581 20.0458V21.8821H45.7712V22.3215C45.7712 23.352 46.1278 23.7478 47.4435 23.7478L47.4337 23.7638ZM45.7445 20.1447H48.4811V19.7222C48.4811 18.9199 48.2333 18.3494 47.1752 18.3494C46.1171 18.3494 45.7454 18.9128 45.7454 19.7222L45.7445 20.1447Z" fill="white"/>
<path d="M56.2965 18.5526C55.5148 18.9128 54.7615 19.3326 54.0448 19.8095V25.3496H51.8662V16.752H53.6847L53.8255 17.7031C54.5236 17.2309 55.2806 16.8524 56.0772 16.5773L56.2965 18.5526Z" fill="white"/>
<path d="M61.5553 18.5526C60.7735 18.9128 60.0203 19.3326 59.3036 19.8095V25.3496H57.125V16.752H58.9435L59.0843 17.7031C59.7824 17.2309 60.5394 16.8524 61.336 16.5773L61.5553 18.5526Z" fill="white"/>
<path d="M68.7518 25.3425H66.9895L66.8317 24.7791C66.0704 25.2733 65.1827 25.5374 64.2751 25.5395C62.7045 25.5395 62.0234 24.4645 62.0234 22.983C62.0234 21.2376 62.7838 20.5761 64.5194 20.5761H66.5857V19.6847C66.5857 18.7336 66.3209 18.3958 64.9473 18.3958C64.1465 18.4044 63.3485 18.493 62.5654 18.6605L62.3007 17.0221C63.2598 16.7569 64.2499 16.6205 65.245 16.6165C67.9477 16.6165 68.7411 17.5676 68.7411 19.7248L68.7518 25.3425ZM66.6008 22.0942H65.0141C64.301 22.0942 64.1227 22.2859 64.1227 22.9384C64.1227 23.5909 64.3144 23.8057 64.9901 23.8057C65.5589 23.7981 66.1167 23.6469 66.6115 23.3663L66.6008 22.0942ZM75.3723 14.7847C74.9669 14.6977 74.554 14.6506 74.1395 14.6438C73.2953 14.6438 73.1714 15.0155 73.1714 15.6689V16.744H75.3554L75.2306 18.4332H73.1643V25.3131H71.0133V18.4653H69.6343V16.7761H71.0071V15.5548C71.0071 13.7702 71.8343 12.8913 73.7437 12.8913C74.3696 12.8885 74.9929 12.9719 75.596 13.1391L75.3723 14.7847ZM79.5726 25.5137C76.6283 25.5137 75.834 23.8913 75.834 22.1263V19.9718C75.834 18.2095 76.6363 16.5844 79.5726 16.5844C82.5089 16.5844 83.3165 18.2068 83.3165 19.9718V22.145C83.3112 23.8958 82.5169 25.5324 79.5726 25.5324V25.5137ZM79.5726 18.4029C78.4468 18.4029 77.9859 18.9154 77.9859 19.8826V22.1967C77.9859 23.1648 78.4254 23.6765 79.5726 23.6765C80.7199 23.6765 81.1593 23.1639 81.1593 22.1967V19.8915C81.1593 18.9172 80.7136 18.4056 79.5726 18.4056V18.4029ZM88.8433 18.5437C88.0613 18.9037 87.3084 19.3239 86.5916 19.8006V25.3407H84.4165V16.7431H86.235L86.3759 17.6942C87.0739 17.222 87.8309 16.8435 88.6276 16.5684L88.8433 18.5437ZM94.7622 25.3425V19.346C94.7622 18.8896 94.5706 18.6596 94.0758 18.6596C93.2843 18.7488 92.5177 18.9948 91.8241 19.3861V25.3586H89.6848V16.7609H91.3232L91.5371 17.4874C92.6087 16.9506 93.7808 16.644 94.978 16.5871C95.3096 16.5563 95.6428 16.6277 95.9327 16.7919C96.2226 16.956 96.4552 17.2049 96.5994 17.5052C97.6727 16.9561 98.852 16.6432 100.056 16.5871C101.486 16.5871 102 17.5944 102 19.1276V25.355H99.8486V19.3585C99.8486 18.9021 99.657 18.6721 99.1622 18.6721C98.3691 18.754 97.602 19.0015 96.9105 19.3986V25.371L94.7622 25.3425Z" fill="white"/>
<path fill-rule="evenodd" clip-rule="evenodd" d="M22.4735 26.2864V26.208L12.1064 20.2209V32.1901L22.4735 38.1771V26.2864ZM22.4735 12.9209V24.8949L12.1064 18.9079V6.93384L22.4735 12.9209Z" fill="white"/>
<path fill-rule="evenodd" clip-rule="evenodd" d="M23.6104 24.8949L33.9823 18.9079V6.93384L23.6104 12.9209V24.8949Z" fill="white"/>
<path fill-rule="evenodd" clip-rule="evenodd" d="M0.602539 12.2252L10.9696 18.2122V6.23813L0.602539 0.251099V12.2252Z" fill="white"/>
</svg>
