<svg width="180" height="36" viewBox="0 0 180 36" fill="none" xmlns="http://www.w3.org/2000/svg">
<g clip-path="url(#clip0_1689_310)">
<path d="M22.6874 10.6707H23.6921L26.5556 7.44795L26.6962 6.07969C25.0559 4.45017 23.0735 3.3182 20.9363 2.79071C18.7992 2.26322 16.5778 2.35763 14.4821 3.06501C12.3864 3.77238 10.4855 5.06938 8.95894 6.83349C7.43242 8.59759 6.33069 10.7706 5.75781 13.1471C6.07681 13 6.43019 12.9761 6.76254 13.0793L12.4895 12.0163C12.4895 12.0163 12.7808 11.4736 12.9315 11.5075C14.1586 9.99071 15.8544 9.0592 17.6718 8.90364C19.4892 8.74808 21.2907 9.38024 22.7075 10.6707H22.6874Z" fill="white"/>
<path d="M30.6342 13.1469C29.9761 10.4191 28.6247 7.96674 26.746 6.09082L22.7271 10.614C23.5647 11.3842 24.2359 12.3585 24.6901 13.4633C25.1444 14.568 25.3698 15.7745 25.3494 16.9916V17.7945C25.8191 17.7945 26.2842 17.8986 26.7182 18.1009C27.1522 18.3032 27.5465 18.5997 27.8786 18.9736C28.2107 19.3474 28.4742 19.7912 28.654 20.2796C28.8337 20.768 28.9262 21.2914 28.9262 21.8201C28.9262 22.3487 28.8337 22.8722 28.654 23.3606C28.4742 23.849 28.2107 24.2928 27.8786 24.6666C27.5465 25.0404 27.1522 25.337 26.7182 25.5393C26.2842 25.7416 25.8191 25.8457 25.3494 25.8457H18.1958L17.4824 26.6599V31.4883L18.1958 32.2912H25.3494C27.347 32.3087 29.2966 31.6021 30.9098 30.2759C32.5229 28.9497 33.7139 27.0743 34.3066 24.9272C34.8993 22.7801 34.8623 20.4753 34.2009 18.3538C33.5395 16.2322 32.289 14.4066 30.6342 13.1469V13.1469Z" fill="white"/>
<path d="M11.0324 32.2462H18.186V25.8007H11.0324C10.5228 25.8006 10.0191 25.6772 9.55547 25.4388L8.55075 25.7894L5.6672 29.0121L5.41602 30.1429C7.03305 31.5172 9.00617 32.2561 11.0324 32.2462V32.2462Z" fill="white"/>
<path d="M11.0323 11.338C9.09404 11.351 7.20777 12.045 5.63697 13.3232C4.06617 14.6013 2.88928 16.3997 2.27069 18.4671C1.6521 20.5346 1.62269 22.7679 2.18657 24.8551C2.75046 26.9422 3.87948 28.7791 5.41593 30.1091L9.56544 25.4389C9.03812 25.1708 8.57648 24.7626 8.22012 24.2496C7.86375 23.7365 7.62331 23.1338 7.51942 22.4931C7.41553 21.8525 7.45129 21.193 7.62363 20.5713C7.79598 19.9496 8.09976 19.3843 8.50892 18.9238C8.91807 18.4633 9.42039 18.1214 9.97276 17.9274C10.5251 17.7335 11.1111 17.6932 11.6803 17.8101C12.2495 17.9271 12.7851 18.1977 13.2409 18.5988C13.6968 18.9998 14.0594 19.5194 14.2977 20.1129L18.4472 15.4427C17.5762 14.1613 16.4537 13.1239 15.1674 12.4118C13.8811 11.6997 12.4658 11.3322 11.0323 11.338V11.338Z" fill="white"/>
<path d="M53.7733 27.7455C52.5417 27.7632 51.3195 27.5009 50.1801 26.9743C49.0407 26.4477 48.0074 25.6678 47.1422 24.6811C46.2497 23.7363 45.5414 22.593 45.0624 21.3238C44.5833 20.0546 44.3438 18.6872 44.3591 17.3083C44.3444 15.9296 44.5841 14.5624 45.0632 13.2933C45.5423 12.0242 46.2502 10.8808 47.1422 9.93559C48.0032 8.93868 49.0345 8.14824 50.1742 7.61187C51.3138 7.0755 52.5381 6.8043 53.7733 6.81461C54.9503 6.79695 56.1187 7.04278 57.2105 7.5378C58.3023 8.03282 59.2958 8.76715 60.1332 9.69812L58.3448 11.7448C57.1201 10.4127 55.4764 9.68087 53.7733 9.70943C52.8899 9.69722 52.0139 9.89197 51.2009 10.2813C50.388 10.6707 49.6559 11.2461 49.0511 11.971C48.4227 12.6727 47.9269 13.5104 47.5936 14.4335C47.2604 15.3566 47.0965 16.346 47.112 17.3423C47.1047 18.3271 47.2724 19.3037 47.6054 20.2145C47.9385 21.1253 48.43 21.9519 49.0511 22.6457C50.2954 24.0412 51.9744 24.835 53.7308 24.8583C55.4872 24.8815 57.1823 24.1323 58.4553 22.77C59.2434 21.7987 59.727 20.5634 59.8318 19.2533H53.8035V16.3585H62.3336C62.4174 16.9415 62.451 17.5322 62.434 18.1225C62.4871 19.3442 62.3195 20.5653 61.9413 21.7121C61.5631 22.8588 60.9822 23.9073 60.2337 24.7942C59.4015 25.7693 58.3961 26.5361 57.283 27.0446C56.1698 27.5532 54.974 27.792 53.7733 27.7455V27.7455ZM73.6066 25.8232C72.4618 27.0582 70.9373 27.7477 69.3516 27.7477C67.7658 27.7477 66.2413 27.0582 65.0966 25.8232C64.5268 25.2014 64.078 24.4531 63.7788 23.6258C63.4796 22.7985 63.3364 21.9102 63.3584 21.0173C63.337 20.1245 63.4805 19.2365 63.7797 18.4092C64.0789 17.582 64.5273 16.8337 65.0966 16.2115C66.2425 14.979 67.7665 14.2913 69.3516 14.2913C70.9366 14.2913 72.4606 14.979 73.6066 16.2115C74.1759 16.8337 74.6243 17.582 74.9234 18.4092C75.2226 19.2365 75.3661 20.1245 75.3447 21.0173C75.3654 21.911 75.2207 22.7998 74.9197 23.6272C74.6187 24.4545 74.1681 25.2024 73.5965 25.8232H73.6066ZM66.9754 23.9348C67.2799 24.3007 67.6479 24.5925 68.0566 24.7919C68.4653 24.9914 68.9061 25.0943 69.3516 25.0943C69.797 25.0943 70.2378 24.9914 70.6465 24.7919C71.0552 24.5925 71.4232 24.3007 71.7277 23.9348C72.0597 23.5486 72.3197 23.0915 72.4922 22.5904C72.6648 22.0893 72.7465 21.5545 72.7325 21.0173C72.7473 20.4784 72.666 19.9415 72.4934 19.4385C72.3209 18.9355 72.0605 18.4765 71.7277 18.0886C71.4192 17.7263 71.0487 17.4381 70.6387 17.2412C70.2286 17.0443 69.7874 16.9428 69.3415 16.9428C68.8957 16.9428 68.4544 17.0443 68.0444 17.2412C67.6343 17.4381 67.2638 17.7263 66.9553 18.0886C66.6225 18.4765 66.3622 18.9355 66.1896 19.4385C66.017 19.9415 65.9358 20.4784 65.9506 21.0173C65.9379 21.5553 66.0211 22.0906 66.1954 22.5917C66.3697 23.0928 66.6315 23.5495 66.9653 23.9348H66.9754ZM86.688 25.8232C85.5433 27.0582 84.0188 27.7477 82.433 27.7477C80.8473 27.7477 79.3228 27.0582 78.178 25.8232C77.6083 25.2014 77.1595 24.4531 76.8603 23.6258C76.5611 22.7985 76.4179 21.9102 76.4399 21.0173C76.4185 20.1245 76.562 19.2365 76.8612 18.4092C77.1603 17.582 77.6088 16.8337 78.178 16.2115C79.3228 14.9764 80.8473 14.2869 82.433 14.2869C84.0188 14.2869 85.5433 14.9764 86.688 16.2115C87.2573 16.8337 87.7058 17.582 88.0049 18.4092C88.3041 19.2365 88.4476 20.1245 88.4262 21.0173C88.4482 21.9102 88.305 22.7985 88.0058 23.6258C87.7066 24.4531 87.2578 25.2014 86.688 25.8232V25.8232ZM80.0569 23.9348C80.3614 24.3007 80.7294 24.5925 81.1381 24.7919C81.5468 24.9914 81.9876 25.0943 82.433 25.0943C82.8785 25.0943 83.3193 24.9914 83.728 24.7919C84.1367 24.5925 84.5047 24.3007 84.8092 23.9348C85.1412 23.5486 85.4012 23.0915 85.5737 22.5904C85.7463 22.0893 85.828 21.5545 85.8139 21.0173C85.8287 20.4784 85.7475 19.9415 85.5749 19.4385C85.4023 18.9355 85.142 18.4765 84.8092 18.0886C84.5007 17.7263 84.1302 17.4381 83.7202 17.2412C83.3101 17.0443 82.8688 16.9428 82.423 16.9428C81.9772 16.9428 81.5359 17.0443 81.1258 17.2412C80.7158 17.4381 80.3453 17.7263 80.0368 18.0886C79.704 18.4765 79.4437 18.9355 79.2711 19.4385C79.0985 19.9415 79.0173 20.4784 79.0321 21.0173C79.0194 21.5553 79.1026 22.0906 79.2769 22.5917C79.4512 23.0928 79.713 23.5495 80.0468 23.9348H80.0569ZM95.2885 33.7839C94.0842 33.827 92.9033 33.404 91.9427 32.5853C91.0899 31.8637 90.4182 30.9052 89.9936 29.8036L92.2843 28.7293C92.5337 29.3876 92.9237 29.9664 93.4197 30.4142C93.9506 30.8959 94.6168 31.1485 95.2985 31.1266C95.7308 31.1562 96.1636 31.0806 96.5676 30.905C96.9716 30.7293 97.3372 30.4578 97.6395 30.1089C98.2448 29.2871 98.5437 28.2333 98.4734 27.1688V26.1963H98.383C98.0001 26.7081 97.5166 27.1125 96.9708 27.3775C96.4249 27.6425 95.8317 27.7607 95.2382 27.7229C94.4839 27.7255 93.7373 27.5519 93.0455 27.2133C92.3538 26.8746 91.732 26.3782 91.2193 25.7553C90.6631 25.1374 90.224 24.3989 89.9287 23.5846C89.6334 22.7702 89.488 21.8968 89.5013 21.0173C89.4874 20.1327 89.6324 19.254 89.9277 18.434C90.2229 17.614 90.6622 16.8696 91.2193 16.2454C91.7307 15.6199 92.352 15.121 93.0439 14.7804C93.7358 14.4397 94.483 14.2647 95.2382 14.2665C95.8773 14.2653 96.5087 14.4236 97.0869 14.7301C97.5871 14.976 98.033 15.3427 98.3931 15.8044H98.4835V14.7301H100.975V26.773C101.041 27.7257 100.933 28.6834 100.658 29.5875C100.384 30.4917 99.9478 31.3232 99.3777 32.0312C98.8346 32.6159 98.193 33.0723 97.4907 33.3733C96.7883 33.6743 96.0395 33.814 95.2885 33.7839V33.7839ZM95.4693 25.0995C95.8983 25.1101 96.3242 25.0143 96.7166 24.8188C97.109 24.6234 97.4584 24.3332 97.74 23.9687C98.3599 23.1691 98.6867 22.1344 98.6543 21.0739C98.6915 19.9954 98.3649 18.9411 97.74 18.1225C97.4589 17.7574 97.1096 17.4667 96.717 17.2713C96.3245 17.0758 95.8984 16.9803 95.4693 16.9917C95.0286 16.9815 94.5909 17.0771 94.1856 17.2721C93.7802 17.4671 93.4163 17.757 93.1183 18.1225C92.4537 18.9117 92.0926 19.9642 92.1135 21.0512C92.1033 21.5845 92.1868 22.1147 92.3592 22.6115C92.5317 23.1083 92.7896 23.5618 93.1183 23.9461C93.4149 24.3151 93.778 24.6089 94.1834 24.8078C94.5888 25.0066 95.0271 25.1061 95.4693 25.0995V25.0995ZM105.406 7.57224V27.3384H102.784V7.57224H105.406ZM112.6 27.7455C111.814 27.7682 111.033 27.6082 110.306 27.2755C109.578 26.9428 108.919 26.4445 108.37 25.8119C107.813 25.1839 107.375 24.4351 107.083 23.6109C106.792 22.7867 106.652 21.9043 106.672 21.0173C106.642 20.1282 106.772 19.2414 107.053 18.4099C107.335 17.5784 107.762 16.8192 108.31 16.1775C108.826 15.5652 109.45 15.0809 110.142 14.7557C110.834 14.4305 111.579 14.2716 112.329 14.2891C113.018 14.2809 113.702 14.431 114.338 14.7301C114.911 14.9905 115.433 15.3746 115.875 15.8609C116.255 16.2732 116.592 16.7321 116.88 17.2292C117.113 17.6488 117.312 18.0917 117.473 18.5522L117.744 19.3211L109.706 23.0414C109.949 23.67 110.356 24.201 110.872 24.5644C111.389 24.9277 111.991 25.1064 112.6 25.0769C113.192 25.0787 113.774 24.9077 114.29 24.5807C114.806 24.2537 115.238 23.7818 115.544 23.2111L117.553 24.7376C117.04 25.5633 116.384 26.2635 115.624 26.7957C114.72 27.4384 113.669 27.7686 112.6 27.7455V27.7455ZM109.244 20.8138L114.589 18.3147C114.424 17.8741 114.13 17.5107 113.755 17.2857C113.336 17.019 112.861 16.8824 112.379 16.8899C111.561 16.9138 110.785 17.2998 110.219 17.9642C109.88 18.3291 109.617 18.7738 109.448 19.2664C109.28 19.7589 109.21 20.2873 109.244 20.8138V20.8138ZM131.479 27.7455C130.363 27.7672 129.256 27.535 128.222 27.0629C127.189 26.5908 126.251 25.8885 125.464 24.9982C124.678 24.1079 124.059 23.0479 123.646 21.8819C123.233 20.7159 123.033 19.468 123.059 18.213C123.033 16.9579 123.233 15.71 123.646 14.544C124.059 13.378 124.678 12.318 125.464 11.4277C126.251 10.5374 127.189 9.83515 128.222 9.36304C129.256 8.89093 130.363 8.65874 131.479 8.68041C132.607 8.64069 133.729 8.88856 134.761 9.40549C135.793 9.92243 136.707 10.6951 137.437 11.6657L135.99 13.2488C135.454 12.491 134.768 11.8862 133.986 11.4834C133.204 11.0806 132.348 10.8912 131.489 10.9307C130.661 10.9097 129.839 11.0772 129.07 11.4231C128.302 11.769 127.604 12.2861 127.018 12.9435C126.408 13.6333 125.932 14.4575 125.619 15.3643C125.306 16.2711 125.163 17.241 125.199 18.213C125.163 19.1849 125.306 20.1548 125.619 21.0616C125.932 21.9684 126.408 22.7926 127.018 23.4824C127.604 24.1398 128.302 24.6569 129.07 25.0028C129.839 25.3487 130.661 25.5162 131.489 25.4952C132.449 25.5074 133.399 25.2758 134.269 24.8177C135.139 24.3596 135.905 23.6867 136.512 22.8492L137.959 24.4775C137.201 25.497 136.25 26.3124 135.176 26.8635C134.018 27.4653 132.754 27.7668 131.479 27.7455V27.7455ZM141.847 27.3384H139.768V9.07619H141.847V27.3384ZM145.243 16.3472C146.333 15.1291 147.807 14.4455 149.343 14.4455C150.878 14.4455 152.352 15.1291 153.442 16.3472C153.975 16.9804 154.391 17.7261 154.667 18.5411C154.943 19.3562 155.073 20.2247 155.049 21.0965C155.073 21.9683 154.943 22.8367 154.667 23.6518C154.391 24.4669 153.975 25.2125 153.442 25.8458C152.352 27.0639 150.878 27.7475 149.343 27.7475C147.807 27.7475 146.333 27.0639 145.243 25.8458C144.71 25.2125 144.294 24.4669 144.018 23.6518C143.742 22.8367 143.612 21.9683 143.636 21.0965C143.612 20.2247 143.742 19.3562 144.018 18.5411C144.294 17.7261 144.71 16.9804 145.243 16.3472V16.3472ZM146.791 24.3758C147.118 24.7655 147.513 25.076 147.951 25.2882C148.389 25.5003 148.861 25.6098 149.338 25.6098C149.814 25.6098 150.286 25.5003 150.724 25.2882C151.162 25.076 151.557 24.7655 151.884 24.3758C152.248 23.9368 152.53 23.4207 152.715 22.8577C152.899 22.2947 152.983 21.696 152.96 21.0965C152.983 20.4969 152.899 19.8982 152.715 19.3352C152.53 18.7722 152.248 18.2562 151.884 17.8172C151.557 17.4274 151.162 17.117 150.724 16.9048C150.286 16.6926 149.814 16.5832 149.338 16.5832C148.861 16.5832 148.389 16.6926 147.951 16.9048C147.513 17.117 147.118 17.4274 146.791 17.8172C146.427 18.2562 146.145 18.7722 145.96 19.3352C145.776 19.8982 145.692 20.4969 145.715 21.0965C145.695 21.6949 145.781 22.292 145.967 22.8529C146.153 23.4139 146.436 23.9277 146.801 24.3645L146.791 24.3758ZM166.574 27.3384H164.564V25.6083H164.504C164.146 26.2654 163.64 26.8039 163.037 27.1688C162.411 27.577 161.701 27.7916 160.977 27.7907C160.39 27.836 159.801 27.7313 159.255 27.4846C158.709 27.2379 158.219 26.8555 157.822 26.366C157.061 25.2825 156.679 23.9229 156.747 22.5439V14.8545H158.827V22.1142C158.827 24.4436 159.741 25.6083 161.57 25.6083C161.976 25.6226 162.38 25.5274 162.747 25.3307C163.114 25.134 163.434 24.8415 163.68 24.4775C164.219 23.7086 164.506 22.7543 164.494 21.7749V14.8545H166.574V27.3384ZM173.637 27.7455C172.931 27.7482 172.234 27.5787 171.592 27.2488C170.95 26.9189 170.379 26.4364 169.919 25.8345C168.878 24.5396 168.32 22.8425 168.362 21.0965C168.32 19.3504 168.878 17.6533 169.919 16.3585C170.379 15.7566 170.95 15.2741 171.592 14.9442C172.234 14.6143 172.931 14.4448 173.637 14.4474C174.427 14.4334 175.208 14.6434 175.907 15.0581C176.522 15.4061 177.042 15.9333 177.414 16.5846H177.505L177.414 14.8545V9.07619H179.494V27.3384H177.485V25.6083H177.394C177.022 26.2597 176.502 26.7868 175.887 27.1349C175.194 27.5459 174.42 27.7558 173.637 27.7455V27.7455ZM173.978 25.6083C174.448 25.616 174.915 25.5111 175.346 25.3006C175.777 25.09 176.164 24.7786 176.48 24.3871C177.187 23.4817 177.548 22.2994 177.485 21.0965C177.548 19.8936 177.187 18.7113 176.48 17.8059C176.162 17.4122 175.774 17.0977 175.341 16.8824C174.909 16.6672 174.441 16.5561 173.968 16.5561C173.495 16.5561 173.028 16.6672 172.595 16.8824C172.163 17.0977 171.775 17.4122 171.456 17.8059C171.106 18.2512 170.836 18.7701 170.664 19.3328C170.491 19.8955 170.419 20.491 170.452 21.0852C170.419 21.6793 170.491 22.2748 170.664 22.8375C170.836 23.4002 171.106 23.9191 171.456 24.3645C171.773 24.763 172.162 25.0803 172.597 25.295C173.032 25.5096 173.503 25.6164 173.978 25.6083V25.6083Z" fill="white"/>
</g>
<defs>
<clipPath id="clip0_1689_310">
<rect width="178.862" height="35.2686" fill="white" transform="translate(0.631836 0.0297852)"/>
</clipPath>
</defs>
</svg>
