<svg width="126" height="36" viewBox="0 0 126 36" fill="none" xmlns="http://www.w3.org/2000/svg">
<path d="M63.6195 17.2196H61.6224V9.42247C61.6121 8.65108 61.6412 7.87943 61.7091 7.11084C61.6445 7.49588 61.5271 7.8702 61.3605 8.22326L57.7026 17.2921H56.3099L52.6462 8.31388L52.2975 7.10472C52.3843 7.61855 52.3843 8.38867 52.3843 9.50288V17.3102H50.4678V5.23265H53.3415L56.5659 13.2817L57.0879 14.6525C57.2202 14.1535 57.3948 13.6668 57.6099 13.1975L60.9191 5.14841H63.7065L63.6195 17.2196ZM67.3642 6.77237C67.203 6.78088 67.0418 6.7547 66.8916 6.6956C66.7414 6.63651 66.6056 6.54587 66.4935 6.42981C66.2596 6.24449 66.1297 5.95758 66.1448 5.65995C66.1116 5.35874 66.2451 5.06366 66.4935 4.89009C66.7419 4.68963 67.0457 4.57008 67.3642 4.54753C67.5253 4.53902 67.6865 4.5652 67.8367 4.6243C67.9869 4.68339 68.1227 4.77403 68.2348 4.89009C68.4687 5.07541 68.5986 5.36232 68.5835 5.65995C68.6167 5.96116 68.4832 6.25624 68.2348 6.42981C68.1227 6.54587 67.9869 6.63651 67.8367 6.6956C67.6865 6.7547 67.5253 6.78088 67.3642 6.77237ZM68.3214 17.2196H66.3181V8.57195H68.3214V17.2196ZM77.2891 16.8794C76.5918 17.3067 75.7214 17.4843 74.7639 17.4843C73.458 17.4843 72.4119 17.057 71.628 16.2851C70.8441 15.5132 70.4189 14.4876 70.4189 13.2016C70.4189 11.7466 70.8541 10.6321 71.7248 9.7755C72.5954 8.91885 73.728 8.49154 75.2073 8.49154C75.9255 8.4917 76.6364 8.63705 77.2971 8.91885V10.7126C76.7405 10.2988 76.0733 10.0603 75.3806 10.0274C74.5127 10.0274 73.8128 10.2835 73.2908 10.8838C72.7547 11.4949 72.4741 12.2886 72.5069 13.1008C72.5069 13.9572 72.7688 14.7268 73.2905 15.2411C73.8286 15.7552 74.55 16.0324 75.2938 16.011C76.032 16.0013 76.7424 15.7281 77.2971 15.2411V16.8799L77.2891 16.8794ZM84.343 10.4583C84.0272 10.2733 83.6645 10.1844 83.2964 10.2023C82.6915 10.2023 82.2499 10.4583 81.8152 10.9722C81.3805 11.486 81.2102 12.1813 81.2102 13.1125V17.224H79.2069V8.57195H81.2102V10.3695C81.3748 9.81966 81.674 9.31957 82.0806 8.91451C82.4615 8.57067 82.9603 8.38663 83.4733 8.40067C83.7443 8.39678 84.0125 8.45539 84.2572 8.57195L84.343 10.4583ZM89.6524 17.4836C88.2597 17.4836 87.2139 17.0563 86.4279 16.2844C85.642 15.5125 85.2188 14.4 85.2188 13.1191C85.2188 11.6642 85.654 10.5497 86.5247 9.69305C87.3954 8.8364 88.528 8.48388 89.9204 8.48388C91.3128 8.48388 92.3589 8.91119 93.1448 9.69305C93.9308 10.4749 94.2675 11.5712 94.2675 13.0262C94.3042 14.2527 93.8718 15.4471 93.0583 16.3655C92.085 17.1185 90.8827 17.5142 89.6524 17.4887V17.4836ZM89.7392 9.94831C88.9559 9.94831 88.3466 10.2049 87.9115 10.7182C87.4763 11.232 87.2141 12.0021 87.2141 12.9351C87.2141 13.8681 87.476 14.5611 87.9115 15.0754C88.347 15.5898 88.9581 15.8453 89.7392 15.8453C90.5203 15.8453 91.1319 15.5893 91.5668 15.0754C92.0018 14.5616 92.1718 13.8762 92.1718 12.8585C92.1718 11.9174 91.9982 11.1483 91.5668 10.6416C91.3231 10.4114 91.0359 10.2322 90.722 10.1146C90.4081 9.99695 90.0739 9.94319 89.7389 9.95648L89.7392 9.94831ZM95.6622 16.9636V15.1615C96.4459 15.6753 97.23 16.0179 98.1007 16.0179C99.3191 16.0179 99.9284 15.6753 99.9284 14.9902C99.9104 14.8079 99.851 14.6322 99.7548 14.4764C99.6511 14.3176 99.4982 14.1974 99.3196 14.1338C99.1248 14.0332 98.9226 13.9475 98.7146 13.8778L97.931 13.6217C97.6048 13.4957 97.2853 13.353 96.9737 13.1944C96.7263 13.0444 96.4929 12.8724 96.2764 12.6806C96.0826 12.487 95.934 12.2531 95.8411 11.9955C95.7335 11.7224 95.6748 11.4325 95.6678 11.1391C95.6618 10.7523 95.7517 10.3701 95.9297 10.0267C96.0983 9.69013 96.3741 9.41927 96.7136 9.25681C97.0623 9.00078 97.411 8.91425 97.8462 8.74297C98.275 8.64393 98.7123 8.58657 99.1521 8.57169C99.8929 8.54612 100.632 8.66239 101.329 8.91425V10.6296C100.714 10.2121 99.9819 10.0004 99.2389 10.0249C99.0031 10.005 98.7657 10.0339 98.5415 10.1096C98.368 10.1944 98.1929 10.1944 98.0195 10.2807C97.8646 10.347 97.7403 10.4695 97.6708 10.6232C97.6009 10.7542 97.5708 10.9027 97.5841 11.0505C97.5701 11.2263 97.5998 11.4028 97.6706 11.5644C97.7396 11.7183 97.8641 11.8406 98.0193 11.9069C98.214 12.0075 98.4162 12.0933 98.6242 12.1629C98.8861 12.2477 99.0595 12.334 99.4079 12.419C99.7393 12.5975 100.089 12.7407 100.45 12.8463C100.799 12.931 100.972 13.1888 101.234 13.3601C101.428 13.5722 101.603 13.8015 101.756 14.0452C101.863 14.3478 101.921 14.6654 101.929 14.9864C101.929 15.4137 101.842 15.8428 101.58 16.0988C101.389 16.4195 101.12 16.6871 100.799 16.8768C100.409 17.0788 100.005 17.2506 99.5894 17.3906C98.271 17.7235 96.877 17.5711 95.6614 16.9613L95.6622 16.9636ZM107.77 17.4836C106.377 17.4836 105.331 17.0563 104.545 16.2844C103.76 15.5125 103.336 14.4 103.336 13.1191C103.336 11.6642 103.772 10.5497 104.642 9.69305C105.513 8.8364 106.646 8.48388 108.038 8.48388C109.43 8.48388 110.476 8.91119 111.262 9.69305C112.048 10.4749 112.395 11.5774 112.395 13.0324C112.432 14.2589 111.999 15.4532 111.186 16.3717C110.199 17.1137 108.994 17.5058 107.76 17.4861L107.77 17.4836ZM107.857 9.94831C107.073 9.94831 106.464 10.2049 106.029 10.7182C105.594 11.232 105.332 12.0021 105.332 12.9351C105.332 13.8681 105.594 14.5611 106.029 15.0754C106.465 15.5898 107.076 15.8453 107.857 15.8453C108.638 15.8453 109.249 15.5893 109.684 15.0754C110.119 14.5616 110.289 13.8762 110.289 12.8585C110.289 11.9174 110.116 11.1483 109.684 10.6416C109.441 10.4084 109.154 10.2263 108.839 10.1061C108.525 9.98599 108.189 9.93024 107.852 9.94218L107.857 9.94831ZM119.257 6.08879C118.969 5.91452 118.637 5.82574 118.3 5.83276C117.343 5.83276 116.819 6.3466 116.819 7.45876V8.65848H118.822V10.2002H116.819V17.3123H114.824V10.1982H113.342V8.65644H114.824V7.2857C114.824 6.34456 115.086 5.65969 115.692 5.14535C116.168 4.77991 116.725 4.53422 117.316 4.42894C117.907 4.32366 118.514 4.36188 119.087 4.54038V6.08215H119.255L119.257 6.08879ZM125.009 17.1346C124.661 17.3053 124.139 17.3906 123.442 17.3906C121.701 17.3906 120.916 16.6208 120.916 14.9925V10.1137H119.435V8.57195H120.916V6.60135L122.92 6.08751V8.65695H125.009V10.1987H122.92V14.4871C122.892 14.8759 122.983 15.2639 123.181 15.5995C123.355 15.8555 123.703 15.9421 124.139 15.9421C124.449 15.9465 124.752 15.8534 125.007 15.6761V17.1311L125.009 17.1346ZM62.674 35.0028H60.4089L59.2763 31.9213H54.3993L53.3527 35.0048H51.0896L55.7047 22.9311H57.9637L62.674 35.0028ZM58.7543 30.2932L57.0134 25.499C56.9369 25.2469 56.8789 24.9896 56.8401 24.7291C56.8012 24.9896 56.7433 25.2469 56.6667 25.499L55.0122 30.2932H58.7543ZM70.6085 27.2054L65.9048 33.4528H70.6067V34.9946H63.1098V34.239L67.9888 27.8969H63.6358V26.3551H70.6894V27.2056L70.6085 27.2054ZM80.0021 35.0028H77.9988V33.6346C77.7396 34.1198 77.3486 34.522 76.8709 34.7948C76.3931 35.0676 75.848 35.1998 75.2984 35.1764C73.2086 35.1764 72.1625 33.9771 72.1625 31.4945V26.3546H74.1658V31.3204C74.1658 32.8615 74.775 33.632 75.9935 33.632C76.2693 33.6432 76.5443 33.595 76.7998 33.4907C77.0554 33.3863 77.2855 33.2283 77.4747 33.0273C77.866 32.5421 78.0794 31.9376 78.0794 31.3143V26.3546H80.0807L80.0021 35.0028ZM87.666 28.2392C87.3502 28.0541 86.9875 27.9653 86.6194 27.9831C86.0144 27.9831 85.5728 28.2392 85.1381 28.753C84.7034 29.2668 84.5332 29.9622 84.5332 30.8934V35.0046H82.5299V26.3546H84.5332V28.1521C84.6978 27.6023 84.997 27.1022 85.4036 26.6971C85.7809 26.3566 86.2715 26.1728 86.782 26.1833C87.053 26.1794 87.3212 26.238 87.5659 26.3546L87.666 28.2392ZM96.5475 31.2359H90.5399C90.5399 32.0058 90.8018 32.6909 91.3236 33.1202C91.7588 33.5475 92.4561 33.8054 93.3268 33.8054C94.2722 33.8263 95.1964 33.5242 95.9468 32.949V34.4907C95.1569 35.0081 94.109 35.2667 92.803 35.2667C92.2393 35.2856 91.6777 35.188 91.1534 34.98C90.6291 34.7719 90.1534 34.4579 89.756 34.0576C88.9724 33.2877 88.6234 32.1732 88.6234 30.7182C88.5822 29.5164 89.0167 28.3468 89.8326 27.4634C90.2188 27.0435 90.6907 26.7113 91.2164 26.4895C91.7421 26.2677 92.3093 26.1614 92.8796 26.1777C94.0888 26.1777 94.9694 26.5203 95.6671 27.2901C96.3647 28.06 96.6243 29.0877 96.6243 30.4553L96.5475 31.2359ZM94.631 29.8652C94.631 29.1801 94.4574 28.5812 94.109 28.2392C93.9426 28.0338 93.7291 27.8716 93.4866 27.7663C93.2442 27.6609 92.9799 27.6156 92.7163 27.6342C92.4405 27.623 92.1655 27.6713 91.9099 27.7756C91.6544 27.8799 91.4242 28.0379 91.235 28.2389C90.7998 28.6662 90.63 29.1801 90.5376 29.8649L94.631 29.8652Z" fill="white"/>
<path fill-rule="evenodd" clip-rule="evenodd" d="M27.614 5.6735L21.1202 18.7522L32.5558 32.0032L11.3361 34.4121L44.2631 34.7567L27.614 5.6735ZM26.3334 0.51062L11.4247 12.9872L0.357422 31.6594L9.77828 30.7149L26.3334 0.51062Z" fill="white"/>
</svg>
