<svg width="101" height="43" viewBox="0 0 101 43" fill="none" xmlns="http://www.w3.org/2000/svg">
<g clip-path="url(#clip0_1689_302)">
<path d="M9.86719 11.243H17.902V20.3735H9.86719V11.243Z" fill="white"/>
<path d="M8.29258 22.1423H0.257812V31.2728H8.29258V22.1423ZM5.63106 28.2293H2.95281V25.1858H5.63106V28.2293Z" fill="white"/>
<path d="M4.90137 7.7368L6.77146 5.61169L11.6124 11.1128L9.74231 13.2379L4.90137 7.7368Z" fill="white"/>
<path d="M6.53711 22.0186L9.76842 18.3468L11.6266 20.4584L8.39548 24.1303L6.53711 22.0186Z" fill="white"/>
<path d="M8.29258 0.343506H0.257812V9.47392H8.29258V0.343506ZM5.63106 6.43045H2.95281V3.38698H5.63106V6.43045Z" fill="white"/>
<path d="M27.0081 30.2646C27.4433 31.2918 28.3974 31.9766 29.452 31.9766C31.3937 31.9766 32.5655 30.1885 32.5655 27.8489C32.5655 25.4711 31.4105 23.7021 29.452 23.7021C28.3807 23.7021 27.4433 24.4249 27.0081 25.4141V30.2646ZM27.0081 40.6505H23.4092V20.4684H27.0081V21.6858C27.594 20.8869 28.8661 20.1451 30.2555 20.1451C34.0218 20.1451 36.1811 23.7021 36.1811 27.8679C36.1811 32.0146 34.0385 35.5526 30.2555 35.5526C28.8661 35.5526 27.5772 34.7918 27.0081 34.0119V40.6505ZM49.2376 35.2102H45.6387V33.8597C44.9189 34.7918 43.6635 35.5336 42.157 35.5336C39.2611 35.5336 37.6039 33.3651 37.6039 30.0934V20.4684H41.2028V29.2755C41.2028 30.8353 41.8724 31.8815 43.2952 31.8815C44.4 31.8815 45.3541 31.1206 45.622 29.8461V20.4875H49.2543V35.2102H49.2376ZM55.2302 30.2646C55.6654 31.2918 56.6196 31.9766 57.6741 31.9766C59.6159 31.9766 60.7876 30.1885 60.7876 27.8489C60.7876 25.4711 59.6326 23.7021 57.6741 23.7021C56.6028 23.7021 55.6654 24.4249 55.2302 25.4141V30.2646ZM55.2302 40.6505H51.6313V20.4684H55.2302V21.6858C55.8161 20.8869 57.0882 20.1451 58.4776 20.1451C62.2439 20.1451 64.4032 23.7021 64.4032 27.8679C64.4032 32.0146 62.2606 35.5526 58.4776 35.5526C57.0882 35.5526 55.7993 34.7918 55.2302 34.0119V40.6505ZM69.5589 30.2646C69.9941 31.2918 70.9482 31.9766 72.0028 31.9766C73.9445 31.9766 75.1163 30.1885 75.1163 27.8489C75.1163 25.4711 73.9613 23.7021 72.0028 23.7021C70.9315 23.7021 69.9941 24.4249 69.5589 25.4141V30.2646ZM69.5589 40.6505H65.96V20.4684H69.5589V21.6858C70.1447 20.8869 71.4169 20.1451 72.8063 20.1451C76.5726 20.1451 78.7319 23.7021 78.7319 27.8679C78.7319 32.0146 76.5893 35.5526 72.8063 35.5526C71.4169 35.5526 70.128 34.7918 69.5589 34.0119V40.6505ZM83.1845 26.232H88.2062C88.1728 24.6722 87.3693 23.4548 85.8795 23.4548C84.4901 23.4548 83.5025 24.4249 83.1845 26.232ZM91.6545 30.3978C91.1858 33.5363 89.1604 35.5526 85.913 35.5526C82.1467 35.5526 79.6191 32.4141 79.6191 27.8679C79.6191 23.4168 82.2304 20.1451 85.8628 20.1451C89.6625 20.1451 91.7549 23.1505 91.7549 27.4684V28.7239H83.1008C83.218 30.9304 84.3228 32.2619 85.913 32.2619C87.1349 32.2619 88.0388 31.6722 88.3234 30.4168H91.6545V30.3978ZM94.0984 23.7592H92.1232V20.4684H94.0984V16.4739H97.6638V20.4684H100.509V23.7592H97.6638V30.2266C97.6638 31.3869 98.2162 31.9005 99.1369 31.9005C99.6893 31.9005 100.292 31.7103 100.71 31.4059V35.0391C100.225 35.3434 99.3377 35.4956 98.3836 35.4956C95.7388 35.4956 94.0817 34.0119 94.0817 30.7401V23.7592H94.0984Z" fill="white"/>
</g>
<defs>
<clipPath id="clip0_1689_302">
<rect width="100.767" height="40.307" fill="white" transform="translate(0.100586 0.343506)"/>
</clipPath>
</defs>
</svg>
