<svg width="58" height="40" viewBox="0 0 58 40" fill="none" xmlns="http://www.w3.org/2000/svg">
<g clip-path="url(#clip0_1689_280)">
<path d="M16.655 14.4851C16.655 15.2832 16.73 15.9303 16.8614 16.4048C17.0115 16.8794 17.1992 17.397 17.4619 17.9579C17.5558 18.1304 17.5933 18.303 17.5933 18.454C17.5933 18.6697 17.4807 18.8854 17.2367 19.1011L16.0545 20.007C15.8856 20.1364 15.7167 20.2011 15.5665 20.2011C15.3789 20.2011 15.1912 20.0933 15.0035 19.8991C14.7408 19.5756 14.5156 19.2305 14.328 18.8854C14.1403 18.5187 13.9526 18.1088 13.7462 17.6127C12.2824 19.5972 10.4433 20.5894 8.22889 20.5894C6.65252 20.5894 5.39517 20.0717 4.47562 19.0363C3.55607 18.001 3.08691 16.6205 3.08691 14.8949C3.08691 13.0615 3.6499 11.5732 4.79465 10.4516C5.9394 9.32993 7.45947 8.76912 9.39241 8.76912C10.0305 8.76912 10.6873 8.83382 11.3816 8.94167C12.076 9.04952 12.7891 9.22208 13.5398 9.41621V7.84161C13.5398 6.20231 13.2395 5.05911 12.6578 4.39044C12.0572 3.72178 11.0438 3.39823 9.59884 3.39823C8.94201 3.39823 8.26643 3.48451 7.57207 3.67864C6.87772 3.87277 6.20213 4.11003 5.54531 4.41201C5.24504 4.563 5.01985 4.64928 4.88848 4.69242C4.75712 4.73556 4.66329 4.75713 4.58822 4.75713C4.32549 4.75713 4.19413 4.54143 4.19413 4.08846V3.03154C4.19413 2.68643 4.23166 2.42759 4.32549 2.2766C4.41932 2.12561 4.58822 1.97462 4.85095 1.82363C5.50777 1.43538 6.29596 1.11183 7.21551 0.852991C8.13506 0.572583 9.11091 0.443164 10.1431 0.443164C12.3763 0.443164 14.0089 1.02555 15.0598 2.19032C16.092 3.35509 16.6174 5.12382 16.6174 7.4965V14.4851H16.655ZM9.03585 17.7637C9.65513 17.7637 10.2932 17.6343 10.9688 17.3755C11.6444 17.1166 12.2449 16.6421 12.7516 15.995C13.0518 15.5852 13.277 15.1322 13.3896 14.6145C13.5022 14.0969 13.5773 13.4713 13.5773 12.738V11.832C13.0331 11.681 12.4513 11.5516 11.8508 11.4653C11.2503 11.3791 10.6685 11.3359 10.0868 11.3359C8.82942 11.3359 7.90986 11.6163 7.29058 12.1987C6.67129 12.7811 6.37102 13.6008 6.37102 14.6792C6.37102 15.693 6.59622 16.448 7.06538 16.9656C7.51577 17.5049 8.17259 17.7637 9.03585 17.7637V17.7637ZM24.1052 20.0933C23.7674 20.0933 23.5422 20.0286 23.3921 19.8776C23.242 19.7482 23.1106 19.4462 22.998 19.0363L18.5879 2.36288C18.4753 1.93148 18.419 1.65107 18.419 1.50009C18.419 1.15497 18.5691 0.96084 18.8694 0.96084H20.7085C21.0651 0.96084 21.309 1.02555 21.4404 1.17654C21.5905 1.30596 21.7031 1.60793 21.8157 2.01776L24.9685 16.297L27.896 2.01776C27.9899 1.58636 28.1025 1.30596 28.2526 1.17654C28.4027 1.04712 28.6654 0.96084 29.0032 0.96084H30.5045C30.8611 0.96084 31.1051 1.02555 31.2552 1.17654C31.4053 1.30596 31.5367 1.60793 31.6118 2.01776L34.5768 16.4695L37.8234 2.01776C37.936 1.58636 38.0674 1.30596 38.1987 1.17654C38.3489 1.04712 38.5928 0.96084 38.9306 0.96084H40.6759C40.9762 0.96084 41.1451 1.1334 41.1451 1.50009C41.1451 1.60793 41.1263 1.71578 41.1075 1.8452C41.0888 1.97462 41.0512 2.14718 40.9762 2.38445L36.4535 19.0579C36.3409 19.4893 36.2095 19.7697 36.0594 19.8991C35.9093 20.0286 35.6653 20.1148 35.3463 20.1148H33.7324C33.3758 20.1148 33.1318 20.0501 32.9817 19.8991C32.8316 19.7482 32.7002 19.4677 32.6251 19.0363L29.7164 5.12381L26.8263 19.0148C26.7325 19.4462 26.6199 19.7266 26.4698 19.8776C26.3196 20.0286 26.0569 20.0933 25.7191 20.0933H24.1052ZM48.22 20.6757C47.2441 20.6757 46.2683 20.5462 45.33 20.2874C44.3916 20.0286 43.6598 19.7482 43.1718 19.4246C42.8716 19.2305 42.6651 19.0148 42.5901 18.8207C42.515 18.6265 42.4775 18.4108 42.4775 18.2167V17.1166C42.4775 16.6637 42.6276 16.448 42.9091 16.448C43.0217 16.448 43.1343 16.4695 43.2469 16.5127C43.3595 16.5558 43.5284 16.6421 43.7161 16.7284C44.3541 17.0519 45.0485 17.3108 45.7803 17.4833C46.531 17.6559 47.2629 17.7422 48.0135 17.7422C49.1958 17.7422 50.1154 17.5049 50.7534 17.0304C51.3915 16.5558 51.7293 15.8656 51.7293 14.9812C51.7293 14.3773 51.5604 13.8812 51.2226 13.4713C50.8848 13.0615 50.2467 12.6948 49.3272 12.3497L46.6061 11.3791C45.2361 10.883 44.2227 10.1496 43.6035 9.17894C42.9842 8.22987 42.6651 7.17295 42.6651 6.05132C42.6651 5.14538 42.834 4.3473 43.1718 3.65707C43.5096 2.96683 43.96 2.36288 44.523 1.88834C45.086 1.39224 45.724 1.02555 46.4747 0.766711C47.2254 0.507873 48.0135 0.400024 48.8393 0.400024C49.2521 0.400024 49.6837 0.421594 50.0966 0.486304C50.5282 0.551013 50.9223 0.637292 51.3164 0.723572C51.6917 0.831421 52.0483 0.93927 52.3861 1.06869C52.7239 1.19811 52.9866 1.32753 53.1743 1.45695C53.437 1.6295 53.6247 1.80206 53.7373 1.99619C53.8499 2.16875 53.9062 2.40602 53.9062 2.708V3.72178C53.9062 4.17474 53.756 4.41201 53.4746 4.41201C53.3244 4.41201 53.0805 4.32573 52.7614 4.15317C51.6917 3.59236 50.4907 3.31195 49.1583 3.31195C48.0886 3.31195 47.2441 3.50608 46.6624 3.9159C46.0806 4.32573 45.7803 4.95126 45.7803 5.83562C45.7803 6.43957 45.968 6.95725 46.3433 7.36708C46.7187 7.7769 47.413 8.18673 48.4076 8.55342L51.0725 9.52406C52.4236 10.0202 53.3995 10.7104 53.9812 11.5948C54.563 12.4791 54.8445 13.4929 54.8445 14.6145C54.8445 15.542 54.6756 16.3833 54.3566 17.1166C54.0188 17.85 53.5684 18.4971 52.9866 19.0148C52.4049 19.554 51.7105 19.9423 50.9036 20.2227C50.0591 20.5247 49.1771 20.6757 48.22 20.6757V20.6757Z" fill="white"/>
<path fill-rule="evenodd" clip-rule="evenodd" d="M51.7658 31.1586C45.5917 36.4001 36.6214 39.1826 28.9084 39.1826C18.099 39.1826 8.3593 34.5882 1.0029 26.9525C0.421144 26.3485 0.946601 25.5289 1.64096 26.0034C9.59788 31.3096 19.4127 34.5235 29.5652 34.5235C36.415 34.5235 43.9403 32.8842 50.865 29.5193C51.8972 28.9801 52.7792 30.2958 51.7658 31.1586V31.1586Z" fill="white"/>
<path fill-rule="evenodd" clip-rule="evenodd" d="M54.3378 27.7937C53.5496 26.6289 49.1207 27.2329 47.1127 27.5133C46.5122 27.5996 46.4184 26.9956 46.9626 26.5427C50.4907 23.6954 56.2895 24.5151 56.9651 25.4642C57.6406 26.4348 56.7774 33.0999 53.4745 36.2922C52.9678 36.7883 52.4799 36.5295 52.7051 35.8824C53.4557 33.747 55.1259 28.9369 54.3378 27.7937V27.7937Z" fill="white"/>
</g>
<defs>
<clipPath id="clip0_1689_280">
<rect width="57.58" height="38.7825" fill="white" transform="translate(0.241211 0.400024)"/>
</clipPath>
</defs>
</svg>
