<svg width="121" height="41" viewBox="0 0 121 41" fill="none" xmlns="http://www.w3.org/2000/svg">
<path fill-rule="evenodd" clip-rule="evenodd" d="M84.328 10.485H81.716L81.7247 29.9357H92.2956V27.5414H84.3345L84.328 10.485ZM102.362 26.5205C101.943 26.9559 101.44 27.3015 100.884 27.5363C100.327 27.7711 99.7289 27.8902 99.1249 27.8864C97.1355 27.8864 96.3334 26.9069 96.3334 25.6292C96.3334 23.6996 97.6698 22.7778 100.52 22.7778C101.064 22.7778 101.915 22.8376 102.362 22.9258V26.5205ZM99.6582 14.7317C97.6308 14.7285 95.6659 15.4329 94.1023 16.7234L95.0274 18.3232C96.0961 17.6996 97.4032 17.076 99.274 17.076C101.413 17.076 102.363 18.1643 102.363 20.0145V20.9646C101.947 20.8753 101.086 20.8155 100.552 20.8155C95.9786 20.8155 93.6626 22.4186 93.6626 25.775C93.6626 28.7745 95.5041 30.2883 98.2945 30.2883C100.175 30.2883 101.976 29.4177 102.6 28.0311L103.076 29.9314H104.917V19.984C104.917 16.8365 103.551 14.7274 99.6604 14.7274L99.6582 14.7317ZM113.346 27.9767C112.367 27.9767 111.505 27.8679 110.852 27.561V18.5637C111.744 17.8215 112.841 17.2871 114.226 17.2871C116.75 17.2871 117.73 19.0687 117.73 21.9495C117.73 26.0471 116.156 27.9789 113.335 27.9789L113.346 27.9767ZM114.424 14.7339C112.088 14.7339 110.832 16.3229 110.832 16.3229V13.811L110.823 10.485H108.27L108.278 29.4612C109.554 30.0054 111.307 30.2927 113.208 30.2927C118.078 30.2927 120.424 27.1746 120.424 21.8004C120.424 17.5538 118.256 14.7328 114.425 14.7328L114.424 14.7339ZM55.9214 12.592C58.2374 12.592 59.7219 13.3539 60.7024 14.1375L61.8256 12.1926C60.2954 10.8507 58.2363 10.1292 56.04 10.1292C50.4874 10.1292 46.5977 13.503 46.5977 20.3442C46.5977 27.5011 50.7943 30.2916 55.5949 30.2916C57.9892 30.2916 60.0494 29.7278 61.3848 29.163L61.3304 21.5164V19.122H54.204V21.5164H58.7587L58.8131 27.3215C58.2189 27.6187 57.1806 27.8657 55.7843 27.8657C51.924 27.8657 49.3413 25.4387 49.3413 20.3236C49.3413 15.1268 52.0143 12.6029 55.9334 12.6029L55.9214 12.592ZM74.3001 10.485H71.7458L71.7545 13.75V25.0339C71.7545 28.1813 73.1203 30.2905 77.0111 30.2905C77.5389 30.2906 78.0656 30.2432 78.5848 30.149V27.8559C78.1919 27.9158 77.7949 27.9456 77.3975 27.9452C75.2589 27.9452 74.3088 26.8568 74.3088 25.0067V17.2251H78.5859V15.0865H74.3088L74.3001 10.485ZM65.2669 29.9357H67.8212V15.0876H65.2669V29.9357ZM65.2669 13.0383H67.8212V10.4839H65.2669V13.0383Z" fill="white"/>
<path fill-rule="evenodd" clip-rule="evenodd" d="M21.6166 40.0116L29.5321 15.6493H13.7012L21.6166 40.0116Z" fill="white"/>
<path fill-rule="evenodd" clip-rule="evenodd" d="M21.6164 40.0104L13.7009 15.6394H2.60645L21.6164 40.0104Z" fill="white"/>
<path fill-rule="evenodd" clip-rule="evenodd" d="M2.60656 15.6394L0.212233 23.0433C-0.00761006 23.7181 0.234 24.4582 0.807551 24.8761L21.6273 40.0039L2.60656 15.6394Z" fill="white"/>
<path fill-rule="evenodd" clip-rule="evenodd" d="M2.60645 15.6394H13.7009L8.93401 0.966502C8.68913 0.211199 7.62039 0.211199 7.37552 0.966502L2.60645 15.6394Z" fill="white"/>
<path fill-rule="evenodd" clip-rule="evenodd" d="M21.6162 40.0104L29.5317 15.6481H40.6261L21.6162 40.0104Z" fill="white"/>
<path fill-rule="evenodd" clip-rule="evenodd" d="M40.6253 15.6394L43.0196 23.0433C43.2395 23.7181 42.9978 24.4582 42.4243 24.8761L21.6045 40.0039L40.6253 15.6394Z" fill="white"/>
<path fill-rule="evenodd" clip-rule="evenodd" d="M40.6267 15.6394H29.5322L34.2991 0.966502C34.544 0.211199 35.6127 0.211199 35.8576 0.966502L40.6267 15.6394Z" fill="white"/>
</svg>
