<svg width="129" height="38" viewBox="0 0 129 38" fill="none" xmlns="http://www.w3.org/2000/svg">
<path d="M48.8106 12.4819C48.5106 12.5196 48.2553 12.557 48.0453 12.5946C47.807 12.6384 47.5705 12.6909 47.3361 12.7522C47.0282 12.8348 46.8313 12.9814 46.7452 13.1914C46.6589 13.4019 46.6157 13.6421 46.6157 13.9125V22.7214C46.6157 23.5327 46.4524 24.2761 46.1259 24.952C45.7995 25.6278 45.351 26.1948 44.7808 26.6528C44.2029 27.1036 43.5576 27.4434 42.8447 27.6723C42.1316 27.9013 41.37 28.0159 40.5597 28.0159C39.1563 28.0159 38.0251 27.6783 37.1658 27.0028C36.3064 26.3274 35.877 25.4007 35.877 24.2225C35.877 23.5246 36.0739 22.9468 36.4679 22.489C36.8618 22.0312 37.404 21.8024 38.0944 21.8024C38.7472 21.8024 39.2667 21.9937 39.6533 22.3764C40.0399 22.7593 40.233 23.2319 40.233 23.7947C40.233 24.2751 40.0659 24.7195 39.7322 25.1286C39.3982 25.5377 39.0173 25.9148 38.5896 26.2599V26.4061C38.6573 26.5564 38.804 26.6839 39.0299 26.7889C39.2553 26.8941 39.4849 26.9465 39.7184 26.9465C40.6213 26.9465 41.3305 26.6236 41.846 25.9777C42.3615 25.332 42.6194 24.3555 42.6194 23.0487V14.0252C42.6194 13.7548 42.5779 13.5296 42.4949 13.3494C42.4117 13.1692 42.2119 13.0112 41.8955 12.8763C41.6692 12.7785 41.396 12.6959 41.0755 12.6284C40.755 12.5608 40.489 12.512 40.2781 12.4819V11.604H48.8105V12.4819H48.8106ZM62.1608 24.8867C61.8981 25.3144 61.5813 25.7179 61.2097 26.097C60.8383 26.4758 60.4159 26.8005 59.9431 27.0706C59.4403 27.3558 58.9318 27.5713 58.418 27.7177C57.9039 27.8641 57.3128 27.9373 56.6449 27.9373C55.5343 27.9373 54.5754 27.7797 53.769 27.4645C52.9623 27.1493 52.2962 26.7255 51.7709 26.1926C51.2457 25.6598 50.8535 25.0314 50.5947 24.3071C50.3359 23.5831 50.2064 22.7971 50.2064 21.949C50.2064 21.1837 50.3471 20.4502 50.6285 19.7483C50.9058 19.0533 51.3126 18.4173 51.8273 17.8742C52.3377 17.3414 52.9812 16.9098 53.7579 16.5796C54.5346 16.2496 55.4031 16.0844 56.3637 16.0844C57.4143 16.0844 58.2772 16.2121 58.9527 16.4671C59.6281 16.7223 60.1872 17.075 60.6299 17.5252C61.0577 17.953 61.3691 18.4576 61.5642 19.0391C61.7594 19.6208 61.8569 20.2305 61.8569 20.8683V21.6H54.2475C54.2475 23.1384 54.544 24.3093 55.1369 25.1121C55.7297 25.9151 56.6716 26.3165 57.9622 26.3165C58.6676 26.3165 59.3017 26.1235 59.8646 25.7368C60.4275 25.3503 60.9077 24.8608 61.3054 24.2678L62.1608 24.8867V24.8867ZM57.8609 20.6092C57.8609 20.1591 57.8383 19.6974 57.7934 19.2248C57.7484 18.7522 57.6695 18.3654 57.5568 18.0653C57.4292 17.7126 57.2546 17.4462 57.0335 17.2661C56.8121 17.0861 56.5325 16.9959 56.1947 16.9959C55.617 16.9959 55.1554 17.2885 54.8103 17.8738C54.4651 18.4591 54.2775 19.3861 54.2474 20.6542L57.8609 20.6092V20.6092ZM78.1001 27.5769H71.3349V26.7551C71.4774 26.7403 71.6501 26.7213 71.8527 26.6988C72.0553 26.6762 72.209 26.639 72.3141 26.5862C72.4717 26.5038 72.5844 26.3836 72.6519 26.2261C72.7194 26.0685 72.753 25.8359 72.753 25.5282V20.2602C72.753 19.4947 72.6119 18.9189 72.3298 18.5323C72.0476 18.1459 71.6318 17.9526 71.0823 17.9526C70.7813 17.9526 70.5012 17.9976 70.2416 18.0877C69.9822 18.1778 69.7281 18.3092 69.4796 18.4817C69.2614 18.6319 69.0864 18.7856 68.9548 18.9433C68.8402 19.0793 68.7292 19.2182 68.6218 19.3599V25.4045C68.6218 25.6671 68.6593 25.8868 68.7343 26.0629C68.8093 26.2394 68.933 26.3726 69.1058 26.4625C69.2256 26.5301 69.376 26.5903 69.5559 26.6426C69.736 26.6953 69.9122 26.7326 70.085 26.7553V27.5769H63.2411V26.7551C63.4311 26.7399 63.6207 26.7193 63.8095 26.6931C64.0009 26.6669 64.1643 26.6313 64.2993 26.5862C64.5394 26.5038 64.7045 26.3762 64.7947 26.2035C64.8846 26.031 64.9298 25.8058 64.9298 25.5281V18.9766C64.9298 18.7441 64.8696 18.5151 64.7496 18.2901C64.6296 18.0649 64.472 17.8811 64.277 17.7385C64.1417 17.6484 63.9711 17.5735 63.7647 17.5133C63.5582 17.4534 63.3314 17.4121 63.0837 17.3896V16.5679L68.4531 16.2752L68.6219 16.4441V18.0762H68.667C68.9211 17.8499 69.1762 17.6248 69.4323 17.4009C69.7324 17.1383 70.0101 16.9244 70.2653 16.7592C70.5427 16.579 70.907 16.4253 71.3572 16.2976C71.8073 16.1701 72.2876 16.1063 72.798 16.1063C74.0211 16.1063 74.9384 16.4535 75.5502 17.1475C76.1617 17.8417 76.4674 18.7629 76.4674 19.9111V25.4269C76.4674 25.7047 76.5086 25.9261 76.5912 26.0909C76.6738 26.2562 76.8277 26.3874 77.0527 26.4849C77.1726 26.5377 77.3211 26.5902 77.4973 26.6424C77.6736 26.6952 77.8743 26.7325 78.0996 26.7551V27.5767L78.1001 27.5769ZM93.589 27.5769H88.2832C87.6309 26.4319 87.0348 25.4604 86.4953 24.6634C85.992 23.9197 85.4821 23.1804 84.9655 22.4458L84.3024 23.0068V25.4607C84.3024 25.7309 84.3417 25.9522 84.4205 26.1247C84.4992 26.2974 84.6512 26.4251 84.8764 26.5074C85.0115 26.5676 85.1691 26.6201 85.3493 26.665C85.5295 26.7098 85.7094 26.7403 85.8895 26.755V27.5767H78.8992V26.755C79.0886 26.74 79.2776 26.7194 79.4658 26.693C79.6547 26.6668 79.8209 26.631 79.9644 26.5861C80.2059 26.5036 80.3705 26.376 80.4575 26.2033C80.5444 26.0309 80.5877 25.8056 80.5877 25.5279V12.9769C80.5877 12.7292 80.5332 12.4723 80.4244 12.2059C80.3156 11.9397 80.156 11.7388 79.9461 11.6037C79.8035 11.5137 79.5896 11.4388 79.3044 11.3786C79.0192 11.3185 78.7604 11.2811 78.5276 11.266V10.4443L84.1331 10.1516L84.3021 10.3317V21.948C84.8567 21.4526 85.4807 20.8786 86.1739 20.2258C86.8672 19.5731 87.4237 19.0328 87.8436 18.605C88.0913 18.35 88.228 18.1568 88.2544 18.0255C88.2805 17.8942 88.2938 17.8135 88.2938 17.7834C88.2938 17.6483 88.1752 17.5357 87.9384 17.4458C87.7013 17.3558 87.3448 17.2768 86.8686 17.2093V16.4101H92.5871V17.1868C91.8376 17.3971 91.2663 17.5941 90.8731 17.7778C90.4799 17.9617 90.0509 18.2075 89.5862 18.515C89.2809 18.7164 88.9831 18.9289 88.6933 19.152C88.4052 19.3741 88.0742 19.6507 87.7 19.9819C88.4342 21.0473 89.1121 22.0332 89.7339 22.9408C90.3557 23.8485 91.0073 24.8084 91.689 25.821C91.9212 26.1735 92.2097 26.4098 92.5544 26.5297C92.8992 26.65 93.2441 26.725 93.5889 26.7549V27.5769H93.589ZM100.827 27.5769H93.7127V26.7551C93.9079 26.7403 94.0993 26.7213 94.2869 26.6988C94.4743 26.6762 94.6359 26.639 94.7708 26.5862C95.0109 26.4963 95.1798 26.3668 95.2773 26.1979C95.3746 26.0289 95.4237 25.806 95.4237 25.5281V18.9766C95.4237 18.714 95.3635 18.4832 95.2436 18.2843C95.1235 18.0858 94.9734 17.9261 94.7934 17.806C94.6583 17.716 94.4538 17.6297 94.18 17.5472C93.9059 17.4646 93.6564 17.412 93.4314 17.3897V16.5679L98.947 16.2752L99.1159 16.4441V25.3818C99.1159 25.6443 99.1723 25.8676 99.2847 26.0516C99.3974 26.2355 99.5588 26.3724 99.7688 26.4624C99.919 26.53 100.084 26.5902 100.264 26.6424C100.444 26.6952 100.632 26.7325 100.827 26.7551V27.5767V27.5769ZM99.1833 12.2232C99.1833 12.7937 98.9638 13.2794 98.5249 13.6808C98.0858 14.0823 97.5662 14.2832 96.9659 14.2832C96.358 14.2832 95.8347 14.0823 95.3955 13.6808C94.9566 13.2794 94.7371 12.7934 94.7371 12.2232C94.7371 11.6529 94.9566 11.1652 95.3955 10.7598C95.8344 10.3545 96.358 10.1519 96.9658 10.1519C97.5737 10.1519 98.0954 10.3546 98.5305 10.7598C98.9656 11.1652 99.1833 11.6529 99.1833 12.2232V12.2232ZM116.721 27.5769H109.956V26.7551C110.098 26.7403 110.271 26.7213 110.474 26.6988C110.676 26.6762 110.83 26.639 110.935 26.5862C111.093 26.5038 111.205 26.3836 111.273 26.2261C111.34 26.0685 111.374 25.8359 111.374 25.5282V20.2602C111.374 19.4947 111.233 18.9189 110.951 18.5323C110.669 18.1459 110.253 17.9526 109.703 17.9526C109.402 17.9526 109.122 17.9976 108.863 18.0877C108.603 18.1778 108.349 18.3092 108.101 18.4817C107.882 18.6319 107.707 18.7856 107.576 18.9433C107.461 19.0793 107.35 19.2182 107.243 19.3599V25.4045C107.243 25.6671 107.28 25.8868 107.355 26.0629C107.43 26.2394 107.554 26.3726 107.727 26.4625C107.847 26.5301 107.997 26.5903 108.177 26.6426C108.357 26.6953 108.533 26.7326 108.706 26.7553V27.5769H101.862V26.7551C102.052 26.74 102.242 26.7193 102.431 26.6931C102.622 26.6669 102.785 26.6313 102.92 26.5862C103.161 26.5038 103.325 26.3762 103.416 26.2035C103.506 26.031 103.551 25.8058 103.551 25.5281V18.9766C103.551 18.7441 103.491 18.5151 103.371 18.2901C103.251 18.0649 103.093 17.8811 102.898 17.7385C102.763 17.6484 102.592 17.5735 102.386 17.5133C102.179 17.4534 101.952 17.4121 101.705 17.3896V16.5679L107.074 16.2752L107.243 16.4441V18.0762H107.288C107.542 17.8499 107.797 17.6248 108.053 17.4009C108.353 17.1383 108.631 16.9244 108.886 16.7592C109.164 16.579 109.528 16.4253 109.978 16.2976C110.428 16.1701 110.909 16.1063 111.419 16.1063C112.642 16.1063 113.559 16.4535 114.171 17.1475C114.783 17.8417 115.089 18.7629 115.089 19.9111V25.4269C115.089 25.7047 115.13 25.9261 115.212 26.0909C115.295 26.2562 115.449 26.3874 115.674 26.4849C115.794 26.5377 115.942 26.5902 116.118 26.6424C116.295 26.6952 116.495 26.7325 116.721 26.7551V27.5767L116.721 27.5769ZM122.98 27.9597C122.257 27.9604 121.538 27.8522 120.847 27.6388C120.152 27.425 119.614 27.1981 119.231 26.9579L118.894 27.7232H118.016L117.869 23.5245H118.691C118.804 23.8621 118.991 24.2431 119.254 24.667C119.517 25.0909 119.817 25.4718 120.155 25.8097C120.507 26.1473 120.911 26.4325 121.365 26.6652C121.819 26.8979 122.305 27.0142 122.822 27.0142C123.505 27.0142 124.014 26.881 124.348 26.6146C124.681 26.3482 124.849 25.9374 124.849 25.382C124.849 25.082 124.774 24.8344 124.623 24.6391C124.473 24.444 124.267 24.2751 124.004 24.1326C123.712 23.9825 123.391 23.8549 123.042 23.7496C122.693 23.6449 122.263 23.5173 121.753 23.3669C121.243 23.217 120.806 23.0648 120.442 22.911C120.078 22.7573 119.7 22.5152 119.311 22.1849C118.973 21.8923 118.703 21.5398 118.5 21.127C118.297 20.7144 118.196 20.2228 118.196 19.6523C118.196 18.5944 118.641 17.7388 119.53 17.0859C120.42 16.433 121.584 16.1065 123.025 16.1065C123.708 16.1065 124.337 16.1761 124.911 16.3149C125.485 16.4539 125.967 16.6056 126.357 16.7709L126.594 16.1068H127.449L127.629 19.9452H126.841C126.578 19.1649 126.128 18.4915 125.49 17.9248C124.853 17.3582 124.166 17.0748 123.43 17.0748C122.853 17.0748 122.399 17.1949 122.068 17.4351C121.738 17.6753 121.573 18.0091 121.573 18.4368C121.573 19.0073 121.815 19.4201 122.298 19.6751C122.781 19.9304 123.457 20.1703 124.326 20.3955C125.667 20.7408 126.648 21.2116 127.27 21.8081C127.892 22.4048 128.203 23.1646 128.203 24.0875C128.203 25.3183 127.721 26.2714 126.756 26.9466C125.792 27.6219 124.533 27.9597 122.98 27.9597H122.98Z" fill="white"/>
<path d="M5.57853 9.12148C3.24833 11.5049 1.80763 14.7956 1.80763 18.4352C1.80763 22.0748 3.2507 25.3666 5.57853 27.7477C7.90636 30.1287 11.1201 31.6002 14.671 31.6002C18.2219 31.6002 21.4333 30.1299 23.7635 27.7477C26.0937 25.3654 27.5344 22.0736 27.5344 18.4352C27.5344 14.7968 26.0913 11.5037 23.7635 9.12148C21.4357 6.73924 18.2219 5.26897 14.671 5.26897C11.1201 5.26897 7.90872 6.73924 5.57853 9.12148V9.12148ZM4.98947 28.3249C2.51379 25.7936 0.984375 22.2948 0.984375 18.4364C0.984375 14.5779 2.51497 11.0791 4.98947 8.54781C7.46397 6.01653 10.8895 4.44572 14.671 4.4469C18.4526 4.44808 21.8781 6.01653 24.3526 8.54781C26.8271 11.0791 28.3588 14.5779 28.3588 18.4364C28.3588 22.2948 26.8282 25.7936 24.3526 28.3249C21.8769 30.8562 18.4526 32.4258 14.671 32.4258C10.8895 32.4258 7.46397 30.8562 4.98947 28.3249" fill="white"/>
<path fill-rule="evenodd" clip-rule="evenodd" d="M9.23397 10.6711C9.23397 10.6711 7.31185 9.50723 7.11077 10.6203C6.90969 11.7333 6.45311 12.5424 7.41476 13.7051L6.7571 13.504L6.1503 11.9368L5.94922 10.4192L7.11195 9.20561L8.42727 9.30733L9.18429 9.91413L9.23515 10.6711H9.23397ZM10.1459 7.48457C10.1459 7.48457 11.0059 3.03473 15.3552 2.16179C18.9356 1.45446 20.8163 2.3132 21.5249 3.12226C21.5249 3.12226 18.3383 -0.669925 15.3031 0.492806C12.268 1.65554 10.0442 3.80476 10.0915 5.15675L10.1424 7.48339L10.1459 7.48457ZM21.8762 3.63916C21.8762 3.63916 20.4094 3.5883 20.3586 4.9048C20.3638 5.04514 20.398 5.18287 20.4591 5.30933C20.4591 5.30933 21.623 3.99401 22.3304 4.70253L21.8762 3.63916ZM15.4545 5.44536C15.4545 5.44536 15.2026 3.42743 13.4815 4.60081C12.3697 5.35783 12.4702 6.42238 12.6725 6.61164C12.8747 6.80089 12.8203 7.2208 12.9741 6.94283C13.1279 6.66487 13.077 5.7529 13.6341 5.49977C14.1912 5.24664 15.1009 4.96394 15.4557 5.43471" fill="#E5E5E5"/>
<path fill-rule="evenodd" clip-rule="evenodd" d="M12.9622 37.2213L11.9154 32.9725L11.3949 29.838L11.3086 27.5113L16.0471 27.2594H18.9959L18.7274 32.5822L19.1828 36.6784L19.1319 37.4354L15.2877 37.7394L12.961 37.2331" fill="white"/>
<path fill-rule="evenodd" clip-rule="evenodd" d="M18.3359 27.2074C18.3359 27.2074 18.0827 32.4675 18.8421 36.197C18.8421 36.197 17.3245 37.1574 15.0996 37.4106L19.346 37.2592L19.8523 36.9552L19.2455 28.6611L19.0941 26.8904" fill="#DCD9D8"/>
<path fill-rule="evenodd" clip-rule="evenodd" d="M21.3721 30.4436C21.3721 30.4436 22.6874 29.8368 22.8897 29.8877L22.3337 27.1057L22.9914 26.8525L23.4468 29.786L26.5316 29.9374C26.5316 29.9374 27.1384 28.7747 26.987 27.5717L27.5429 29.1898L27.5938 30.1006L26.7847 31.3142L25.874 31.5153L24.3564 31.4644L23.8501 30.8068L22.0806 31.0599L21.5247 31.261" fill="white"/>
<path d="M19.383 26.8524L18.2711 24.0207L17.1084 22.3529C17.1084 22.3529 17.3615 21.6432 17.7152 21.6432H18.8779L19.9898 22.0477L19.8893 23.919L19.383 26.8524Z" fill="white"/>
<path fill-rule="evenodd" clip-rule="evenodd" d="M19.6013 25.8942C19.6013 25.8942 18.1854 23.1619 18.1854 22.7597C18.1854 22.7597 18.4385 22.1529 18.7922 22.3043C19.1459 22.4557 19.9041 22.8602 19.9041 22.8602V21.8998L18.1842 21.5449L17.0215 21.6963L18.9933 26.3496L19.3978 26.4005" fill="#DCD9D8"/>
<path d="M13.415 19.2172L12.0145 19.0635L10.6992 18.6589V19.1143L11.3415 19.824L13.3523 20.7348" fill="white"/>
<path fill-rule="evenodd" clip-rule="evenodd" d="M11.1563 19.3705C11.1563 19.3705 12.7236 20.0281 13.2298 19.8767L13.2807 20.4835L11.8648 20.1807L11.0049 19.5739L11.1563 19.3729" fill="#DCD9D8"/>
<path fill-rule="evenodd" clip-rule="evenodd" d="M15.4553 5.44647C14.0773 5.1271 13.3925 6.02369 12.9737 6.95459C12.6011 6.86469 12.7372 6.35725 12.8554 6.09821C13.092 5.41926 14.0974 4.51675 14.9089 4.63859C15.259 4.69181 15.7321 5.01118 15.4672 5.44647H15.4553ZM22.1715 7.00427L22.2365 7.00663C22.5476 7.65365 22.828 8.33969 23.21 8.89918C22.9463 9.51189 21.2169 10.0548 21.243 8.95359C21.6167 8.79036 22.2626 8.92047 22.5949 8.71111C22.4033 8.18474 22.1265 7.73644 22.1691 6.99244L22.1715 7.00427ZM16.1603 7.03266C16.456 7.5744 16.5506 8.14453 16.9717 8.5526C17.161 8.73713 17.5277 8.96187 17.3467 9.47522C17.2175 9.67289 17.0321 9.82737 16.8144 9.91879C16.1579 10.1128 14.6262 9.959 15.1584 9.14048C15.7025 9.16413 16.4312 9.49296 16.8381 9.09908C16.5258 8.60228 15.971 7.61461 16.1757 7.03384L16.1603 7.03266ZM21.9361 12.54C20.9473 13.1751 19.8448 13.8647 18.2244 13.7062C17.8778 13.4058 17.7465 12.7363 18.0824 12.2927C18.2575 12.5932 18.1475 13.1479 18.636 13.2307C19.555 13.3881 20.6255 12.6689 21.2855 12.4169C21.696 11.725 21.2501 11.4707 20.881 11.0259C20.124 10.1151 19.1103 8.98434 19.147 7.61934C19.4521 7.39815 19.4782 7.95764 19.5231 8.05936C19.9182 8.98198 20.9118 10.1648 21.6368 10.9573C21.8143 11.1525 22.11 11.3394 22.1407 11.4683C22.2354 11.8433 21.8959 12.2916 21.9349 12.5411L21.9361 12.54ZM8.8882 11.8705C8.57829 11.693 8.50496 10.9147 8.14064 10.8923C7.62019 10.8603 7.71482 11.9036 7.71718 12.5128C7.35878 12.1875 7.29609 11.188 7.55868 10.6734C7.25943 10.5268 7.12458 10.8355 6.95898 10.9455C7.1719 9.3936 9.23004 10.2358 8.88701 11.8717L8.8882 11.8705ZM22.5547 13.1728C22.0816 14.0481 21.4429 15.0133 20.0921 15.0417C20.0649 14.7578 20.0447 14.3284 20.0932 14.1581C21.1259 14.0587 21.7634 13.5335 22.5535 13.1728H22.5547ZM16.0834 13.7405C16.9445 14.1936 18.5283 14.2421 19.6994 14.2078C19.762 14.4644 19.7609 14.7814 19.7632 15.0949C18.2575 15.1694 16.4785 14.7992 16.0964 13.7405H16.0834ZM15.9308 14.5851C16.527 16.0814 18.5745 15.9099 20.3014 15.8673C20.2257 16.0613 20.0601 16.2907 19.8555 16.3735C19.3019 16.6101 17.7761 16.7698 17.0084 16.3617C16.5211 16.1015 16.2088 15.5172 15.9415 15.1741C15.8232 15.0085 15.1703 14.5851 15.932 14.5827" fill="white"/>
<path fill-rule="evenodd" clip-rule="evenodd" d="M21.853 22.8498L19.6553 26.3332C20.003 25.3113 20.1521 23.6009 20.2041 22.295C20.9316 21.9544 21.5549 22.3719 21.853 22.851" fill="white"/>
<path fill-rule="evenodd" clip-rule="evenodd" d="M19.3486 19.0529C18.9891 19.2894 18.6815 19.5816 18.3361 19.8335C17.5696 19.8714 17.1509 19.7803 16.5879 19.3403C16.5974 19.3048 16.6541 19.3202 16.6553 19.2776C17.4762 19.6443 18.5195 19.1286 19.3486 19.0529" fill="white"/>
<path fill-rule="evenodd" clip-rule="evenodd" d="M15.0391 24.6477C15.2638 23.6706 16.1486 23.1644 16.9505 22.625C17.7785 23.6777 18.2824 25.0262 18.8372 26.332C17.5266 25.937 16.1876 25.2959 15.0402 24.6465" fill="white"/>
<path fill-rule="evenodd" clip-rule="evenodd" d="M19.6478 32.4544C19.6147 33.2528 19.7259 34.5362 19.7638 35.3724C20.296 35.3736 20.5231 35.2565 20.9194 35.1241C20.9643 34.1376 20.6071 33.2256 20.5054 32.3255C20.296 32.2699 19.9104 32.4733 19.649 32.4437L19.6478 32.4544ZM11.3774 27.9123C11.7275 31.132 12.235 33.8265 13.1659 36.6889C15.2311 37.3159 17.7198 37.3703 19.5461 36.8049C19.2114 35.1962 19.3569 33.2362 19.1617 31.5176L18.8873 27.6107C16.6754 27.1493 13.5491 27.5042 11.3786 27.9087L11.3774 27.9123ZM19.4207 27.6343C19.4018 29.0182 19.4822 30.3809 19.5887 31.766L20.9726 31.5247C20.8129 30.1916 20.8307 28.6918 20.5054 27.5125C20.1269 27.516 19.7957 27.5077 19.4196 27.6343H19.4207ZM22.1141 27.4119C21.8621 27.3528 21.57 27.4096 21.3275 27.4143L21.8006 30.9687C22.1791 30.9806 22.3802 30.8031 22.6937 30.7416C22.7102 29.7031 22.6026 28.2719 22.1022 27.4119H22.1141ZM26.1925 31.1379C26.9826 30.9463 27.4782 29.9787 27.2571 28.9851C27.1092 28.318 26.8454 27.0606 26.5627 26.6336C26.3545 26.3178 25.788 25.9038 25.3361 26.1936C24.6004 26.6644 23.3052 26.8016 22.7694 27.3705C23.0379 28.2659 23.1218 29.4949 23.233 30.6293C24.1521 30.686 25.2817 30.3761 26.0458 30.705C25.5135 30.8777 24.8204 30.8788 24.3603 31.1308C24.7364 31.3129 25.6188 31.2763 26.1937 31.1367L26.1925 31.1379ZM18.8494 26.3356C18.2935 25.0309 17.7908 23.6789 16.9628 22.6285C16.1608 23.1667 15.2772 23.673 15.0513 24.6512C16.1987 25.3017 17.5388 25.9405 18.8482 26.3367L18.8494 26.3356ZM20.2168 22.2962C20.1647 23.6008 20.0157 25.3124 19.668 26.3344C20.4959 25.2781 21.1666 24.0479 21.8657 22.8509C21.5676 22.373 20.9431 21.9555 20.2168 22.295V22.2962ZM18.6791 21.7449C18.3645 21.7095 18.0995 22.1057 17.6891 21.9342L17.4146 22.2512C18.3172 23.3394 18.7158 24.8818 19.4255 26.1593C19.7992 24.9315 19.7567 23.5866 19.8395 22.2465C19.3261 22.2796 19.041 21.7816 18.6803 21.7438L18.6791 21.7449ZM17.682 20.4296C17.6488 20.8022 17.7352 20.9241 17.8097 21.3522C19.034 21.7355 18.8199 19.6726 17.682 20.4296ZM16.3241 19.9837C15.6949 19.6462 15.0211 19.3997 14.3227 19.2515C13.4782 19.0895 13.5574 20.4036 13.5929 21.1878C13.6213 21.8088 13.9442 22.4653 14.0838 22.8769C14.15 23.0697 14.1642 23.2732 14.3286 23.3122C14.6196 23.3796 15.5789 22.9964 15.8521 22.8474C16.4317 22.5315 16.8788 22.0194 17.3697 21.6953L17.3886 21.2044C17.0929 21.0577 16.7523 20.9524 16.3181 20.9323C16.6139 20.7845 17.0444 20.7868 17.3117 20.6106L17.3188 20.4143C16.8291 20.3764 16.6446 20.1588 16.3205 19.9825L16.3241 19.9837ZM11.2852 19.0682C10.8475 19.5129 12.513 20.1185 13.044 20.1517C13.0405 19.8701 13.2049 19.6052 13.1718 19.4029C12.5413 19.2917 11.7134 19.3651 11.2863 19.0682H11.2852ZM16.6789 19.2764C16.6766 19.3201 16.6198 19.3036 16.6115 19.3391C17.1745 19.7791 17.5933 19.8713 18.3597 19.8323L19.3722 19.0516C18.5443 19.1261 17.4998 19.6407 16.6789 19.2764ZM21.6303 20.7786C21.6066 20.2841 21.4765 19.2693 21.1713 19.0918C20.5302 18.7181 19.3912 19.8465 18.9098 20.0192C18.9618 20.1706 19.0493 20.2912 19.0552 20.4829C19.3391 20.4119 19.6881 20.4592 19.9353 20.5822C19.649 20.6142 19.3439 20.6118 19.1428 20.7478C19.0718 20.9489 19.1593 21.221 19.1132 21.5001C19.7921 21.6917 20.5681 21.7934 21.4257 21.8195C21.5913 21.603 21.6504 21.189 21.6303 20.7786ZM10.5471 19.4987C10.4099 19.4006 9.47897 18.1905 9.36423 18.2402C7.68105 18.9026 6.10787 20.0499 4.70148 21.1382C6.04282 24.0148 6.58219 27.5409 6.67919 30.938C8.21688 31.656 9.56532 32.6921 11.6471 32.7998L11.0486 27.9643C10.5246 27.7431 9.77349 27.9738 9.2838 27.8957C9.27907 27.3043 10.0325 27.6355 10.0952 27.2404C10.1425 26.94 9.68123 26.9175 9.83145 26.4444C10.2147 26.5839 10.4158 26.8915 10.825 27.0062C11.1988 26.1901 10.8203 24.7446 10.8724 24.0491C10.8842 23.9214 10.9362 23.3394 11.2237 23.4411C11.478 23.531 11.2095 24.9907 11.2355 25.6353C11.2591 26.2303 11.1645 26.8182 11.4046 27.1801C13.419 26.9057 15.4653 26.7283 17.6441 26.6691C17.1651 26.4633 16.5949 26.2669 15.9704 25.9168C15.6321 25.7276 14.5652 25.329 14.4682 25.006C14.3121 24.4939 14.8774 24.2206 14.9733 23.7818C13.956 24.3377 13.7585 23.2495 13.5184 22.4807C13.3007 21.7828 13.1753 21.2623 13.1233 20.8602C12.248 20.4426 11.3112 20.0322 10.5565 19.4845L10.5471 19.4987ZM20.7396 18.3869C22.1425 17.7067 22.3956 20.93 21.8456 21.9661C21.9307 22.276 22.2241 22.3943 22.3424 22.6723L19.8939 26.7685C20.4877 26.3982 21.3369 26.7022 22.023 26.4136C22.2785 26.3131 22.463 25.7276 22.657 25.2603C23.1893 23.9734 23.7476 22.3506 23.996 21.1204C24.0516 20.8401 24.2053 20.2309 24.171 19.9813C24.1095 19.5354 23.5051 19.2042 23.1964 18.9168L21.6823 17.4832C21.4422 17.838 20.9277 18.0746 20.7313 18.3632L20.7396 18.3869ZM7.31674 5.9493C6.64843 6.68503 6.78801 8.06186 6.86962 9.04243C8.07612 8.28305 9.68005 9.10157 9.66586 10.3944C10.2431 10.379 9.88113 9.67288 9.77704 9.21986C9.43639 7.73657 10.3519 6.12555 9.81844 4.76883C8.78346 4.8469 7.93418 5.27035 7.31792 5.9493H7.31674ZM12.0978 1.68162C10.5837 2.1098 8.64625 3.20985 8.02526 4.56775C8.50667 4.49678 8.84142 4.25548 9.31455 4.21289C9.49434 4.20107 9.72855 4.2886 9.93554 4.23655C10.346 4.13483 10.6926 3.21339 11.0036 2.87037C11.3065 2.53563 11.6696 2.3925 11.918 2.08733C12.0777 2.01045 12.3142 2.01636 12.3225 1.77624C12.2515 1.70173 12.1806 1.65796 12.0859 1.65796L12.0978 1.68162ZM19.9719 2.08378C18.4023 1.2002 15.7445 0.534262 14.0743 1.3658C12.7259 2.03765 10.9043 3.14952 10.2833 4.55947C10.8629 5.91973 10.1118 7.16526 10.0633 8.54564C10.0373 9.279 10.4087 9.92128 10.4371 10.7221C10.2384 11.0497 9.63274 11.0887 9.21165 11.0675C9.06971 10.3601 8.82131 9.56525 8.09505 9.48481C7.06597 9.37244 6.31132 10.2253 6.26401 11.1171C6.20842 12.1651 7.06834 13.9027 8.28903 13.7821C8.7598 13.7348 8.87572 13.2616 9.38907 13.2675C9.66704 13.8235 8.9597 13.9973 8.88755 14.3936C8.86862 14.4965 8.94669 14.8975 8.99164 15.0856C9.21283 16.0011 9.70726 17.1851 10.1934 17.8818C10.8108 18.7654 12.0221 18.899 13.3279 18.9854C13.561 18.4839 14.4185 18.5241 14.978 18.6566C14.3085 18.3916 13.6851 17.7481 13.1682 17.178C12.5768 16.5251 11.9736 15.8237 11.944 14.9696C13.0642 16.5239 13.9903 17.8818 16.0272 18.5655C17.5684 19.0824 19.3699 18.3289 20.5539 17.4962C21.046 17.1508 21.3393 16.602 21.6894 16.1004C22.9965 14.2079 23.6056 11.5347 23.4731 8.93243C23.4176 7.85959 23.4199 6.79149 23.0592 6.06995C22.683 5.3153 21.4103 4.63872 20.6651 5.3224C20.5267 4.58904 21.2849 4.13483 22.1744 4.39978C21.5404 3.58126 20.8733 2.59714 19.9719 2.08851V2.08378ZM22.8971 26.293C24.1237 25.6826 26.4161 24.6512 27.1861 26.2953C27.47 26.9009 27.8035 27.9253 27.9502 28.551C28.1584 29.4334 27.7136 31.2881 26.8182 31.585C26.0174 31.8452 25.0818 31.831 24.1166 31.637C24.0031 31.5424 23.8765 31.3768 23.7878 31.2065C23.0982 31.1793 22.4535 31.242 21.9094 31.5259C21.9615 32.0345 21.6161 32.1173 21.2944 32.2237C21.0542 33.1736 21.7734 34.4143 21.6019 35.2802C21.4789 35.8976 20.7195 35.9923 20.1624 36.1082C20.1446 36.463 20.186 36.7374 20.2251 37.0272C20.0973 37.4968 19.5248 37.7653 18.9831 37.8316C17.1994 38.0445 14.4907 38.1427 12.7732 37.524C12.2941 36.3495 11.9168 34.9218 11.5194 33.5793C9.84565 33.7567 8.4913 32.8577 7.2162 32.2663C6.77381 32.0617 6.15164 31.9469 5.99787 31.5968C5.83819 31.2562 5.90324 30.6032 5.86421 29.9882C5.76367 28.415 5.67495 26.895 5.27279 25.2828C5.0859 24.5589 4.76062 23.9226 4.53351 23.2247C4.32415 22.5789 3.95747 21.7816 3.86166 21.1358C3.71972 20.1812 4.61868 20.128 5.19354 19.714C6.08067 19.0753 6.77854 18.7204 7.74256 18.1432C8.02644 17.9717 8.88755 17.5518 8.98454 17.3389C9.17853 16.9438 8.65098 16.3867 8.51141 16.0768C8.28667 15.5871 8.17193 15.1707 8.13999 14.6869C7.33211 14.5592 6.72059 14.079 6.35036 13.5372C5.73883 12.6406 5.31419 10.9823 5.8441 9.7202C5.8855 9.62084 6.08067 9.42449 6.12325 9.27308C6.18239 8.97264 6.0097 8.57284 5.99905 8.25348C5.94346 6.61288 6.27702 5.20175 7.38061 4.70496C7.83009 2.9307 9.43284 2.32745 10.9445 1.43795C11.5099 1.10676 12.1321 0.893845 12.7755 0.657277C15.0821 -0.192002 18.6235 -0.0323182 20.5385 1.41666C21.35 2.03174 22.6487 3.32695 23.1124 4.26731C24.339 6.74536 24.2515 10.8877 23.3939 13.9027C23.2792 14.3073 23.11 14.9022 22.8782 15.3884C22.7149 15.7278 22.2099 16.4056 22.2714 16.7072C22.3341 17.0171 23.4247 17.8451 23.6589 18.071C24.0799 18.4768 24.8795 19.0173 24.9446 19.5283C25.0156 20.0724 24.7045 20.82 24.5472 21.3463L22.9148 26.2906" fill="white"/>
<path fill-rule="evenodd" clip-rule="evenodd" d="M19.1468 22.8331C19.1468 22.9869 19.0226 23.1111 18.8688 23.1111C18.715 23.1111 18.5908 22.9869 18.5908 22.8331C18.5908 22.6794 18.715 22.5552 18.8688 22.5552C19.0226 22.5552 19.1468 22.6794 19.1468 22.8331ZM19.4235 24.1343C19.4235 24.288 19.2993 24.4122 19.1456 24.4122C18.9918 24.4122 18.8676 24.288 18.8676 24.1343C18.8676 23.9805 18.9918 23.8563 19.1456 23.8563C19.2993 23.8563 19.4235 23.9805 19.4235 24.1343Z" fill="white"/>
</svg>
