<svg width="92" height="42" viewBox="0 0 92 42" fill="none" xmlns="http://www.w3.org/2000/svg">
<path d="M61.6848 16.0184C60.0339 16.0184 58.8025 16.8293 58.8025 18.7812C58.8025 20.2379 59.6134 21.2721 61.5944 21.2721C63.2745 21.2721 64.4155 20.2816 64.4155 18.72C64.4155 16.9477 63.3959 16.0184 61.6848 16.0184ZM58.383 29.7985C57.9916 30.2782 57.6022 30.789 57.6022 31.3765C57.6022 32.5759 59.1317 32.9381 61.2342 32.9381C62.9754 32.9381 65.3468 32.8167 65.3468 31.1969C65.3468 30.2355 64.2058 30.1753 62.7637 30.085L58.3937 29.7859L58.383 29.7985ZM67.2687 16.1077C67.8076 16.8001 68.3796 17.7586 68.3796 19.1405C68.3796 22.4714 65.7576 24.4234 61.9858 24.4234C61.0147 24.4234 60.165 24.302 59.6134 24.1534L58.6228 25.7315L61.5653 25.9111C66.7608 26.2413 69.8198 26.3928 69.8198 30.3831C69.8198 33.8364 66.7899 35.7844 61.5653 35.7844C56.1319 35.7844 54.0615 34.4035 54.0615 32.0214C54.0615 30.6715 54.6636 29.95 55.7124 28.9585C54.7219 28.5409 54.3917 27.7893 54.3917 26.9793C54.3917 26.319 54.7219 25.7169 55.2628 25.1585L57.1234 23.3571C55.6522 22.6385 54.5403 21.075 54.5403 18.8657C54.5403 15.4134 56.8224 13.0429 61.4158 13.0429C62.7073 13.0429 63.4881 13.1623 64.1786 13.3439H70.0325V15.8951L67.2696 16.1048L67.2687 16.1077ZM75.3124 10.652C73.613 10.652 72.6108 9.66148 72.6108 7.94843C72.6108 6.23539 73.6013 5.30701 75.3124 5.30701C77.0536 5.30701 78.0441 6.23928 78.0441 7.94843C78.0441 9.65759 77.0536 10.652 75.3134 10.652H75.3124ZM71.4279 28.6934V26.3238L72.9604 26.1141C73.3799 26.0539 73.4411 25.9636 73.4411 25.512V16.6885C73.4411 16.3583 73.3508 16.1485 73.0497 16.0572L71.4279 15.4872L71.7581 13.0575H77.9733V25.5168C77.9733 25.9975 78.0024 26.0568 78.4539 26.1189L79.9835 26.3287V28.6963H71.425L71.4279 28.6934ZM91.867 27.5309C90.5754 28.1622 88.6837 28.7448 86.9726 28.7448C83.3989 28.7448 82.049 27.3056 82.049 23.9116V16.0456C82.049 15.8659 82.049 15.7445 81.8062 15.7445H79.7183V13.074C82.3598 12.7826 83.4115 11.4522 83.7417 8.17956H86.5938V12.4427C86.5938 12.6515 86.5938 12.7438 86.8347 12.7438H91.0687V15.7445H86.5841V22.9065C86.5841 24.6788 87.0056 25.3683 88.6234 25.3683C89.4644 25.3683 90.3229 25.1585 91.0551 24.8885L91.866 27.53" fill="white"/>
<path d="M40.782 18.9122L22.7853 0.917514C21.7501 -0.118664 20.0691 -0.118664 19.0319 0.917514L15.2961 4.65436L20.0351 9.39339C21.1373 9.02145 22.3998 9.272 23.2757 10.1479C23.6939 10.5669 23.9859 11.095 24.1183 11.672C24.2507 12.2489 24.2182 12.8515 24.0244 13.4109L28.5925 17.979C29.685 17.5983 30.9718 17.846 31.8555 18.7268C32.2481 19.1186 32.5306 19.6069 32.6744 20.1426C32.8182 20.6784 32.8182 21.2425 32.6746 21.7783C32.5309 22.314 32.2486 22.8025 31.856 23.1944C31.4635 23.5863 30.9746 23.8678 30.4386 24.0106C29.9032 24.1542 29.3393 24.1542 28.8039 24.0107C28.2684 23.8671 27.7802 23.5851 27.3884 23.1929C26.4609 22.2645 26.2327 20.9011 26.7018 19.7581L22.4532 15.5095V26.721C22.7445 26.8705 23.0378 27.0677 23.2883 27.3182C24.5216 28.5515 24.5216 30.5501 23.2883 31.7853C22.9952 32.0788 22.6471 32.3116 22.2639 32.4705C21.8808 32.6293 21.47 32.7111 21.0552 32.7111C20.6405 32.7111 20.2297 32.6293 19.8466 32.4705C19.4634 32.3116 19.1153 32.0788 18.8222 31.7853C17.5889 30.5491 17.5889 28.5515 18.8222 27.3182C19.1181 27.0225 19.4696 26.7882 19.8564 26.6287V15.3152C19.4922 15.1599 19.1281 14.9326 18.8222 14.6355C18.379 14.1925 18.0776 13.6276 17.9566 13.0128C17.8355 12.398 17.9002 11.7611 18.1424 11.1832L13.4694 6.50919L1.12169 18.8278C0.625337 19.3264 0.34668 20.0013 0.34668 20.7049C0.34668 21.4085 0.625337 22.0834 1.12169 22.5821L19.1193 40.5768C20.1545 41.613 21.8355 41.613 22.8727 40.5768L40.782 22.6666C41.2783 22.1679 41.557 21.493 41.557 20.7894C41.557 20.0858 41.2783 19.4109 40.782 18.9122" fill="white"/>
</svg>
