<svg width="109" height="36" viewBox="0 0 109 36" fill="none" xmlns="http://www.w3.org/2000/svg">
<path d="M35.9639 17.7737C35.9637 22.451 34.1055 26.9366 30.798 30.2438C27.4906 33.551 23.0049 35.409 18.3277 35.409C8.5883 35.409 0.693359 27.514 0.693359 17.7747C0.693359 8.03532 8.58929 0.140381 18.3277 0.140381C28.066 0.140381 35.962 8.0363 35.962 17.7767" fill="white"/>
<path d="M18.6248 10.9123L23.1886 22.1759L16.2957 16.7471L18.6248 10.9123ZM26.7316 24.7701L19.7116 7.87669C19.5116 7.38997 19.1204 7.13184 18.6238 7.13184C18.1273 7.13184 17.7075 7.38997 17.5065 7.87669L9.80176 26.4066H12.4373L15.4867 18.7668L24.5886 26.1199C24.9552 26.4155 25.2192 26.5495 25.5621 26.5495C26.2498 26.5495 26.8508 26.0342 26.8508 25.2903C26.8508 25.1691 26.8075 24.977 26.7306 24.7701H26.7316Z" fill="black"/>
<path d="M60.1346 23.0488C59.9524 23.0488 59.7563 23.0025 59.6194 22.8182L53.7738 15.1312V22.9719H52.4407V13.3163C52.4407 12.9222 52.7589 12.6247 53.1225 12.6247C53.3343 12.6247 53.5166 12.6867 53.6526 12.871L59.4824 20.5423V12.7321H60.8155V22.3719C60.8164 22.4615 60.7994 22.5503 60.7654 22.6332C60.7314 22.7161 60.6811 22.7913 60.6175 22.8544C60.554 22.9175 60.4784 22.9672 60.3953 23.0006C60.3122 23.034 60.2232 23.0504 60.1337 23.0488H60.1346ZM67.8463 23.1414C66.5142 23.1414 65.1201 22.8655 63.8186 22.3729L64.1368 21.2664C65.3329 21.6606 66.6354 21.9266 67.8463 21.9266C69.5272 21.9266 70.4061 21.3275 70.4061 20.4822C70.4061 19.7137 69.7242 19.3294 67.3773 18.222C65.0304 17.1145 64.1063 16.4091 64.1063 15.0248C64.1063 13.2878 65.4383 12.5813 67.9527 12.5813C68.9971 12.5813 70.613 12.7981 71.5273 13.0739L71.3155 14.2109C70.2234 13.9502 69.1059 13.8115 67.9833 13.7971C66.2118 13.7971 65.4846 14.1351 65.4846 14.9814C65.4846 15.811 66.0147 16.1637 68.4976 17.3185C71.1184 18.5333 71.7835 19.1481 71.7835 20.4093C71.7835 22.2389 70.0563 23.1463 67.8463 23.1463V23.1414ZM74.7865 12.7153H76.164V22.9542H74.7865V12.7153ZM85.3683 18.1983H81.9455V21.6734H85.3683C86.5339 21.6734 87.2462 20.9344 87.2462 19.9048C87.2462 18.9363 86.5043 18.1983 85.3683 18.1983ZM84.7013 13.7705H81.9455V17.0456H84.7013C85.8068 17.0456 86.6097 16.3381 86.6097 15.3539C86.6097 14.3853 85.9132 13.7705 84.7013 13.7705ZM85.3831 22.8409H81.2647C80.8706 22.8409 80.5681 22.5335 80.5681 22.1492V13.2937C80.5702 13.11 80.6444 12.9345 80.7747 12.8051C80.905 12.6757 81.081 12.6028 81.2647 12.602H84.6717C86.7605 12.602 88.0019 13.6316 88.0019 15.2465C88.0019 16.1332 87.4866 16.9372 86.6994 17.414C87.866 17.7687 88.6532 18.7363 88.6532 19.9048C88.6532 21.5344 87.3063 22.8409 85.3821 22.8409H85.3831ZM92.6731 22.7276C92.2947 22.7276 91.9834 22.4044 91.9834 22.0359V12.4789H93.3628V21.4724H98.8635V22.7177L92.6731 22.7276ZM105.282 22.7838C102.464 22.7838 100.769 21.7394 100.769 19.6309C100.769 18.6318 101.331 17.6781 102.42 17.2328C101.534 16.679 101.087 15.8948 101.087 15.0336C101.087 13.1272 102.557 12.2197 105.324 12.2197C106.439 12.2244 107.55 12.3429 108.64 12.5734L108.489 13.7114C107.338 13.5272 106.262 13.4198 105.217 13.4198C103.43 13.4198 102.476 13.9124 102.476 15.0947C102.476 16.0327 103.355 16.7697 104.522 16.7697H106.885C106.962 16.7685 107.039 16.7828 107.11 16.8116C107.182 16.8405 107.247 16.8834 107.302 16.9378C107.357 16.9922 107.401 17.0571 107.431 17.1285C107.46 17.2 107.475 17.2766 107.475 17.354C107.475 17.6919 107.219 17.953 106.884 17.953H104.34C103.007 17.953 102.159 18.6131 102.159 19.6279C102.159 21.1187 103.537 21.565 105.263 21.565C106.202 21.565 107.474 21.4428 108.514 21.1965L108.711 22.3177C107.6 22.6174 106.454 22.7727 105.303 22.7798L105.282 22.7838ZM44.9034 14.742L47.3173 20.7896L43.6718 17.8732L44.9034 14.742ZM49.1913 22.1827L45.4788 13.1124C45.3724 12.8513 45.1606 12.7124 44.9034 12.7124C44.7757 12.7101 44.6504 12.7473 44.5446 12.8189C44.4388 12.8905 44.3576 12.993 44.3122 13.1124L40.251 23.3326L41.6304 23.0606L43.2432 18.9589L48.0563 22.9069C48.2504 23.0646 48.3893 23.1375 48.5716 23.1375C48.661 23.1389 48.7499 23.1224 48.8329 23.089C48.9159 23.0555 48.9913 23.0058 49.0548 22.9427C49.1183 22.8796 49.1684 22.8044 49.2024 22.7216C49.2363 22.6388 49.2533 22.5501 49.2524 22.4606C49.2461 22.3649 49.2248 22.2708 49.1893 22.1818L49.1913 22.1827Z" fill="white"/>
</svg>
