<svg width="101" height="34" viewBox="0 0 101 34" fill="none" xmlns="http://www.w3.org/2000/svg">
<path d="M43.1872 20.1287H48.9V23.4272H39.2256V10.5429H43.1984L43.1872 20.1287ZM51.4874 10.5531H55.4603V23.4374H51.4874V10.5531ZM66.2175 17.4394H66.2563V10.5429H70.008V23.4272H66.1371L62.1948 16.3932H62.1561V23.4272H58.4145V10.5429H62.4759L66.2175 17.4394ZM84.6862 18.4509C84.6862 22.0428 82.7915 23.7481 78.8186 23.7481C74.8458 23.7481 72.9347 22.052 72.9347 18.4509V10.545H76.9076V17.5637C76.9076 18.8625 76.9076 20.525 78.841 20.525C80.7745 20.525 80.7195 18.8676 80.7195 17.5637V10.5409H84.6923V18.4479L84.6862 18.4509ZM91.4227 10.5429L93.3582 14.0472L95.2754 10.5429H99.6791L95.5463 16.6092L100.144 23.4272H95.364L93.1596 19.5868L90.8879 23.4272H86.3405L90.9928 16.5715L86.7551 10.5439L91.4227 10.5429Z" fill="white"/>
<path d="M0.499023 13.8628V33.6537H20.295V27.0578H7.1072V13.8628H0.499023Z" fill="white"/>
<path d="M7.0957 7.28312H26.8927V27.0577H23.5993V33.6547H33.4907V0.659668H0.505859V10.5551H7.09672L7.0957 7.28312Z" fill="white"/>
</svg>
