<svg width="130" height="37" viewBox="0 0 130 37" fill="none" xmlns="http://www.w3.org/2000/svg">
<path d="M18.4529 0.88289C18.1241 0.902359 17.8026 0.987638 17.5074 1.13367L4.71761 7.23768C4.38771 7.39475 4.09753 7.62427 3.8687 7.90912C3.63986 8.19397 3.47828 8.5268 3.396 8.8828L0.263742 22.5855C0.189846 22.9032 0.181306 23.2327 0.238643 23.5539C0.295979 23.8751 0.417995 24.1812 0.59728 24.4538C0.640749 24.5207 0.686726 24.585 0.73521 24.6469L9.58276 35.6411C9.81318 35.924 10.1039 36.1519 10.4336 36.3081C10.7634 36.4643 11.1238 36.5449 11.4887 36.5439H25.6729C26.0392 36.5447 26.401 36.4633 26.7317 36.3058C27.0624 36.1482 27.3536 35.9185 27.5838 35.6336L36.4238 24.6344C36.6526 24.3504 36.814 24.0183 36.8956 23.6629C36.9773 23.3076 36.9772 22.9383 36.8953 22.583L33.7405 8.86525C33.6582 8.50925 33.4966 8.17642 33.2678 7.89157C33.039 7.60672 32.7488 7.3772 32.4189 7.22012L19.6391 1.13367C19.2708 0.95243 18.863 0.866219 18.4529 0.88289V0.88289Z" fill="white"/>
<path d="M18.581 5.54736C18.3692 5.56219 18.1717 5.65959 18.0309 5.81859C17.8902 5.97759 17.8176 6.18548 17.8286 6.39751V6.61318C17.8497 6.85743 17.8849 7.10025 17.9339 7.34045C18.0042 7.8 18.0294 8.26532 18.0092 8.72977C17.9651 8.88309 17.8781 9.02059 17.7584 9.12601L17.7408 9.45202C17.2758 9.4906 16.8141 9.56183 16.359 9.66519C14.4449 10.0965 12.7034 11.0904 11.3585 12.5191L11.0826 12.3235C10.9312 12.3683 10.7683 12.3521 10.6287 12.2783C10.2557 12.0024 9.91052 11.6908 9.59799 11.3479C9.44118 11.1604 9.27372 10.9821 9.09643 10.8138L8.92589 10.6783C8.77462 10.5565 8.58833 10.4861 8.39424 10.4777C8.27853 10.4718 8.16305 10.4932 8.05717 10.5403C7.95129 10.5874 7.85799 10.6587 7.78484 10.7486C7.6604 10.9232 7.61032 11.1401 7.64558 11.3517C7.68084 11.5633 7.79856 11.7522 7.97293 11.8771L8.13092 12.0025C8.3351 12.1383 8.54694 12.2622 8.7654 12.3736C9.17234 12.5998 9.55619 12.8652 9.91146 13.1661C10.0027 13.296 10.0557 13.4489 10.0644 13.6075L10.3152 13.8256C8.9625 15.8553 8.40701 18.313 8.75536 20.7271L8.43436 20.8199C8.35077 20.9533 8.23855 21.0663 8.10584 21.151C7.65701 21.2706 7.19758 21.3462 6.73407 21.3767C6.48824 21.3818 6.2429 21.401 5.99928 21.4343L5.79866 21.4845H5.77358C5.63208 21.5033 5.49863 21.5612 5.38825 21.6518C5.27786 21.7423 5.19491 21.8618 5.14871 21.9968C5.10252 22.1319 5.09491 22.2772 5.12675 22.4163C5.15859 22.5555 5.22861 22.683 5.32894 22.7845C5.4293 22.8861 5.55601 22.9577 5.69481 22.9912C5.83361 23.0247 5.97901 23.0188 6.11464 22.9741H6.12969L6.33784 22.9491C6.57148 22.8786 6.8009 22.7949 7.02498 22.6983C7.45593 22.5248 7.90276 22.3938 8.35913 22.3071C8.51709 22.3168 8.66915 22.3706 8.798 22.4625L9.13153 22.4049C9.87797 24.7214 11.4473 26.6841 13.5428 27.922L13.4023 28.2155C13.467 28.3494 13.4906 28.4995 13.47 28.6468C13.28 29.086 13.0482 29.5059 12.7779 29.9007C12.6292 30.0966 12.4918 30.3009 12.3666 30.5126L12.2663 30.7182C12.1945 30.841 12.1582 30.9814 12.1616 31.1236C12.1649 31.2658 12.2077 31.4042 12.2852 31.5235C12.3626 31.6428 12.4717 31.7382 12.6003 31.7991C12.7288 31.86 12.8717 31.884 13.0131 31.8683C13.1545 31.8527 13.2887 31.7981 13.4009 31.7106C13.513 31.6231 13.5986 31.5061 13.6481 31.3728L13.7434 31.1772C13.8304 30.9476 13.9041 30.7131 13.9641 30.475C14.1647 29.9734 14.2776 29.4342 14.5559 29.1007C14.6468 29.0154 14.7613 28.9594 14.8845 28.9402L15.06 28.6267C17.331 29.5 19.8441 29.5063 22.1195 28.6443L22.2699 28.9377C22.4262 28.9621 22.5666 29.0467 22.6612 29.1734C22.8773 29.5842 23.0528 30.0151 23.1853 30.4599C23.2461 30.6981 23.3207 30.9325 23.4085 31.1621L23.5038 31.3577C23.5533 31.4911 23.6389 31.608 23.7511 31.6955C23.8632 31.783 23.9974 31.8377 24.1388 31.8533C24.2802 31.8689 24.4231 31.845 24.5517 31.7841C24.6802 31.7232 24.7893 31.6278 24.8668 31.5085C24.9442 31.3892 24.987 31.2507 24.9903 31.1085C24.9937 30.9663 24.9574 30.826 24.8856 30.7032L24.7853 30.4976C24.66 30.2867 24.5227 30.0832 24.374 29.8882C24.1094 29.5065 23.8826 29.1 23.6969 28.6744C23.6786 28.5966 23.676 28.5159 23.6894 28.4371C23.7027 28.3582 23.7317 28.2829 23.7746 28.2155C23.7255 28.1154 23.6828 28.0124 23.6467 27.907C25.7394 26.661 27.3027 24.6909 28.0404 22.3697L28.3664 22.4274C28.4832 22.3207 28.6372 22.2639 28.7953 22.2694C29.2516 22.3562 29.6985 22.4872 30.1294 22.6607C30.3532 22.7624 30.5826 22.8512 30.8166 22.9265C30.8717 22.9415 30.952 22.9516 31.0172 22.9691H31.0322C31.1679 23.0138 31.3132 23.0197 31.452 22.9862C31.5908 22.9527 31.7176 22.8812 31.8179 22.7797C31.9183 22.6781 31.9884 22.5506 32.0202 22.4114C32.0521 22.2722 32.0445 22.1269 31.9982 21.9918C31.9519 21.8564 31.8685 21.7367 31.7576 21.6461C31.6467 21.5556 31.5128 21.4979 31.3708 21.4795L31.1451 21.4293C30.9015 21.396 30.6561 21.3767 30.4103 21.3716C29.9468 21.3412 29.4874 21.2656 29.0385 21.1459C28.8996 21.0684 28.785 20.9538 28.7075 20.8149L28.399 20.7246C28.7296 18.3124 28.1629 15.8627 26.8066 13.8407L27.0774 13.5899C27.0665 13.4322 27.1178 13.2764 27.2204 13.1561C27.5729 12.853 27.9543 12.585 28.3589 12.3561C28.5773 12.2446 28.7892 12.1207 28.9934 11.9849L29.1614 11.8495C29.2847 11.7727 29.3838 11.6627 29.4473 11.532C29.5107 11.4013 29.5359 11.2554 29.5199 11.111C29.5039 10.9666 29.4474 10.8297 29.3569 10.7161C29.2664 10.6025 29.1456 10.5168 29.0084 10.4689C28.8713 10.4211 28.7234 10.413 28.5818 10.4456C28.4403 10.4782 28.3108 10.5502 28.2084 10.6533L28.0379 10.7887C27.8607 10.957 27.6932 11.1354 27.5364 11.3228C27.2332 11.6695 26.8972 11.9861 26.5332 12.2683C26.3863 12.3278 26.2256 12.3452 26.0693 12.3184L25.7784 12.5266C24.1008 10.7678 21.8418 9.67796 19.4211 9.45955C19.4211 9.35923 19.406 9.17366 19.4035 9.11848C19.2733 9.02907 19.1833 8.89224 19.1527 8.7373C19.1369 8.27327 19.1663 7.80881 19.2405 7.35048C19.2896 7.11028 19.3247 6.86746 19.3458 6.62321V6.40503C19.3569 6.193 19.2842 5.98511 19.1435 5.82611C19.0028 5.66712 18.8053 5.56972 18.5935 5.55489L18.581 5.54736ZM17.623 11.4808L17.3973 15.4933H17.3797C17.3745 15.6152 17.3363 15.7334 17.2692 15.8353C17.2022 15.9372 17.1087 16.019 16.9989 16.072C16.889 16.125 16.7668 16.1472 16.6453 16.1363C16.5238 16.1254 16.4075 16.0817 16.3089 16.0099L13.0186 13.6777C14.0662 12.6488 15.3804 11.9331 16.813 11.6112C17.0814 11.554 17.3526 11.5104 17.6255 11.4808H17.623ZM19.5389 11.4808C21.2671 11.6953 22.8769 12.4715 24.1207 13.6902L20.8606 16.0074C20.762 16.0863 20.6433 16.1359 20.518 16.1506C20.3926 16.1654 20.2657 16.1447 20.1515 16.0908C20.0374 16.037 19.9406 15.9523 19.8722 15.8462C19.8038 15.7401 19.7666 15.617 19.7646 15.4908L19.5389 11.4808ZM11.8199 15.1899L14.8293 17.8732V17.8908C14.9211 17.9711 14.9895 18.0747 15.0271 18.1907C15.0647 18.3067 15.0701 18.4307 15.0429 18.5496C15.0156 18.6685 14.9566 18.7777 14.8722 18.8657C14.7878 18.9537 14.6811 19.0172 14.5635 19.0494V19.0619L10.7014 20.1729C10.5099 18.433 10.9035 16.6788 11.8199 15.1874V15.1899ZM25.3194 15.1899C26.2336 16.6774 26.6378 18.4224 26.4705 20.1604L22.6035 19.0469V19.0319C22.4859 18.9997 22.3792 18.9362 22.2948 18.8482C22.2103 18.7602 22.1514 18.6509 22.1241 18.532C22.0968 18.4132 22.1023 18.2892 22.1399 18.1731C22.1775 18.0571 22.2458 17.9535 22.3377 17.8732L25.322 15.1999L25.3194 15.1899ZM17.964 18.0864H19.1929L19.9452 19.0394L19.6694 20.2331L18.5659 20.7648L17.4575 20.2331L17.1967 19.0369L17.964 18.0864ZM21.9088 21.3466C21.9605 21.3405 22.0127 21.3405 22.0643 21.3466L26.0467 22.0187C25.4605 23.6737 24.3388 25.0857 22.8593 26.0312L21.3195 22.2995C21.2771 22.1996 21.2594 22.091 21.2677 21.9828C21.2761 21.8745 21.3104 21.7699 21.3677 21.6777C21.425 21.5855 21.5036 21.5085 21.5969 21.453C21.6902 21.3976 21.7955 21.3654 21.9038 21.3591L21.9088 21.3466ZM15.2205 21.3641C15.3312 21.3659 15.4398 21.3948 15.5367 21.4485C15.6336 21.5021 15.7158 21.5788 15.776 21.6718C15.8363 21.7647 15.8727 21.8711 15.8821 21.9814C15.8915 22.0918 15.8736 22.2028 15.8299 22.3045V22.3196L14.2976 26.0111C12.836 25.0716 11.724 23.6775 11.1328 22.0437L15.0801 21.3716C15.1243 21.3673 15.1688 21.3673 15.213 21.3716L15.2205 21.3641ZM18.5559 22.9842C18.6813 22.9804 18.8054 23.0114 18.9143 23.0738C19.0232 23.1363 19.1127 23.2276 19.1728 23.3378H19.1879L21.1339 26.8487C20.8786 26.9344 20.6191 27.0072 20.3565 27.0669C18.925 27.3946 17.4306 27.3173 16.0406 26.8437L17.9816 23.3327C18.0398 23.2314 18.1233 23.1469 18.224 23.0876C18.3247 23.0282 18.439 22.996 18.5559 22.9942V22.9842Z" fill="black"/>
<path d="M44.9733 19.4256L45.7131 18.6181C45.9673 18.3372 46.2139 18.0597 46.4529 17.7855L47.13 17.0031C47.3407 16.7556 47.5221 16.54 47.6742 16.3561H50.5532C49.9781 17.0164 49.418 17.6459 48.873 18.2444C48.3263 18.843 47.7277 19.4616 47.0774 20.1002C47.4342 20.4283 47.7693 20.7793 48.0805 21.151C48.4266 21.5573 48.761 21.9752 49.0836 22.4049C49.4063 22.8346 49.7039 23.2693 49.9764 23.709C50.2472 24.1436 50.4746 24.5399 50.6585 24.8977H47.8749C47.7077 24.6134 47.5104 24.3008 47.283 23.9597C47.0556 23.617 46.8216 23.281 46.5808 22.9516C46.33 22.6172 46.0676 22.2887 45.7934 21.966C45.5436 21.677 45.2692 21.4102 44.9733 21.1685V24.9152H42.5508V12.6846L44.9733 12.2934V19.4281V19.4256ZM59.0923 24.6118C58.5687 24.755 58.0369 24.8663 57.4998 24.9453C56.8228 25.0506 56.1386 25.1026 55.4535 25.1008C54.8359 25.1191 54.2206 25.0195 53.6403 24.8074C53.1937 24.6379 52.7988 24.3553 52.4942 23.9873C52.204 23.6186 51.9986 23.1905 51.8924 22.7334C51.7688 22.2058 51.709 21.6653 51.7143 21.1234V16.3586H54.1369V20.8225C54.1369 21.6032 54.2397 22.1667 54.4453 22.5127C54.651 22.8588 55.0355 23.0318 55.5989 23.0318C55.7661 23.0318 55.95 23.0235 56.1506 23.0068C56.3513 22.99 56.5243 22.9708 56.6697 22.9491V16.3535H59.0923V24.6118ZM69.3191 20.6294C69.3277 21.2599 69.2259 21.8872 69.0182 22.4826C68.8326 23.0109 68.5359 23.4932 68.148 23.897C67.7543 24.2969 67.2774 24.6051 66.7511 24.7999C66.1472 25.0198 65.5079 25.1269 64.8653 25.1158C64.5727 25.1158 64.2667 25.1025 63.9474 25.0757C63.6298 25.049 63.3154 25.0139 63.0045 24.9704C62.6952 24.9269 62.4001 24.8751 62.1192 24.8149C61.8383 24.7547 61.5876 24.692 61.3669 24.6268V12.6821L63.7894 12.2909V16.5542C64.0614 16.4348 64.3445 16.3424 64.6346 16.2783C64.9444 16.2114 65.2605 16.1786 65.5775 16.1805C66.1306 16.1692 66.6797 16.277 67.1875 16.4965C67.6439 16.7004 68.0453 17.0098 68.3586 17.3993C68.6868 17.8169 68.9296 18.2949 69.0734 18.8062C69.2425 19.3989 69.3253 20.013 69.3191 20.6294V20.6294ZM66.8489 20.5642C66.8489 19.0043 66.2747 18.2244 65.1261 18.2244C64.8763 18.2245 64.6275 18.2574 64.3863 18.3222C64.1764 18.3747 63.976 18.4593 63.7919 18.573V22.9692C63.909 22.9909 64.0594 23.0101 64.2433 23.0268C64.4272 23.0435 64.6279 23.0519 64.8452 23.0519C65.1329 23.0718 65.421 23.0198 65.6836 22.9008C65.9463 22.7817 66.1752 22.5992 66.3499 22.3698C66.706 21.8373 66.8802 21.2039 66.8464 20.5642H66.8489ZM70.7787 20.6946C70.7641 20.0145 70.8825 19.3381 71.1273 18.7034C71.3351 18.1728 71.6472 17.6893 72.0451 17.2814C72.4183 16.9109 72.8639 16.6215 73.3542 16.4313C73.8375 16.2378 74.3533 16.1382 74.8739 16.1379C76.0877 16.1379 77.0465 16.509 77.7504 17.2513C78.4526 17.9937 78.8037 19.0854 78.8037 20.5265C78.8037 20.667 78.7987 20.8216 78.7886 20.9905C78.7786 21.1577 78.7677 21.3065 78.756 21.4369H73.2639C73.2854 21.6741 73.3593 21.9036 73.4803 22.1087C73.6013 22.3138 73.7664 22.4895 73.9636 22.6231C74.4569 22.9386 75.0365 23.092 75.6213 23.0619C76.0605 23.0622 76.4988 23.021 76.9303 22.9391C77.2898 22.8778 77.6414 22.7769 77.9786 22.6381L78.3046 24.6042C78.1373 24.6837 77.9636 24.7491 77.7855 24.7999C77.548 24.8697 77.3069 24.9267 77.0633 24.9704C76.7958 25.0205 76.5115 25.0623 76.2106 25.0958C75.9082 25.1278 75.6043 25.1437 75.3003 25.1434C74.6159 25.1582 73.935 25.0425 73.294 24.8024C72.7598 24.5979 72.2769 24.2785 71.8796 23.8669C71.5026 23.4653 71.2199 22.9847 71.052 22.4601C70.8659 21.8911 70.7727 21.2957 70.7762 20.6971L70.7787 20.6946ZM76.4664 19.7667C76.4559 19.5625 76.4206 19.3604 76.3611 19.1648C76.3041 18.9753 76.2104 18.7989 76.0852 18.6457C75.9554 18.4901 75.7949 18.3629 75.6137 18.272C75.3929 18.1681 75.1505 18.1182 74.9065 18.1266C74.666 18.1203 74.427 18.1674 74.2069 18.2645C74.0205 18.3507 73.8547 18.4755 73.7203 18.6306C73.5878 18.7867 73.4858 18.9661 73.4194 19.1598C73.3492 19.3578 73.2971 19.5618 73.2639 19.7692H76.4664V19.7667ZM85.8255 18.5002C85.6082 18.4467 85.3574 18.3899 85.0732 18.3297C84.7627 18.2681 84.4468 18.2379 84.1303 18.2394C83.9482 18.2415 83.7665 18.2549 83.5861 18.2795C83.4243 18.2975 83.2642 18.3276 83.1071 18.3698V24.8901H80.6845V16.8075C81.1847 16.6378 81.6937 16.4955 82.2093 16.3811C82.8575 16.2397 83.5195 16.1715 84.1829 16.178C84.3133 16.178 84.4705 16.1864 84.6544 16.2031C84.8383 16.2198 85.0222 16.2415 85.2061 16.2683C85.39 16.295 85.5739 16.3285 85.7578 16.3686C85.919 16.3997 86.0768 16.4459 86.2293 16.5065L85.8255 18.5002ZM87.5308 16.6495C88.0545 16.5065 88.5863 16.3951 89.1233 16.3159C89.8011 16.2106 90.4862 16.1586 91.1722 16.1604C91.7907 16.1422 92.4073 16.2391 92.9903 16.4463C93.436 16.6103 93.831 16.8878 94.1364 17.2513C94.4256 17.6132 94.6311 18.0345 94.7383 18.4852C94.8623 19.0068 94.9221 19.5416 94.9163 20.0776V24.9077H92.4913V20.3686C92.4913 19.5878 92.3885 19.0361 92.1828 18.7134C91.9772 18.3891 91.5927 18.2269 91.0292 18.2269C90.8621 18.2269 90.6781 18.2352 90.4775 18.252C90.2769 18.2687 90.1039 18.2879 89.9584 18.3096V24.9052H87.5359V16.6495H87.5308ZM96.6969 20.6946C96.6824 20.0145 96.8008 19.3381 97.0455 18.7034C97.2533 18.1728 97.5654 17.6893 97.9633 17.2814C98.3336 16.9121 98.7757 16.6227 99.2624 16.4313C99.7457 16.2378 100.261 16.1383 100.782 16.1379C101.996 16.1379 102.955 16.509 103.659 17.2513C104.361 17.9937 104.712 19.0854 104.712 20.5265C104.712 20.667 104.706 20.8216 104.694 20.9905C104.683 21.1577 104.672 21.3065 104.662 21.4369H99.1696C99.1911 21.6741 99.265 21.9036 99.386 22.1087C99.507 22.3138 99.6721 22.4895 99.8693 22.6231C100.363 22.9386 100.942 23.092 101.527 23.0619C101.966 23.0621 102.404 23.021 102.836 22.9391C103.195 22.8778 103.547 22.7769 103.884 22.6381L104.21 24.6042C104.043 24.6837 103.869 24.7491 103.691 24.7999C103.454 24.8697 103.213 24.9267 102.969 24.9704C102.701 25.0205 102.417 25.0623 102.116 25.0958C101.814 25.1278 101.51 25.1437 101.206 25.1434C100.522 25.1582 99.8407 25.0425 99.1997 24.8024C98.6654 24.5979 98.1826 24.2785 97.7853 23.8669C97.4091 23.4626 97.1281 22.9794 96.9627 22.4525C96.78 21.8855 96.6894 21.2928 96.6944 20.6971L96.6969 20.6946ZM102.385 19.7667C102.374 19.5625 102.339 19.3604 102.279 19.1648C102.222 18.9753 102.129 18.7989 102.003 18.6457C101.874 18.4901 101.713 18.3629 101.532 18.272C101.311 18.1681 101.069 18.1182 100.825 18.1266C100.584 18.1202 100.345 18.1673 100.125 18.2645C99.9388 18.3507 99.7729 18.4755 99.6385 18.6306C99.506 18.7866 99.4039 18.9661 99.3376 19.1598C99.2673 19.3578 99.2153 19.5617 99.1821 19.7692H102.385V19.7667ZM106.51 14.2244L108.932 13.8332V16.341H111.842V18.3473H108.932V21.3566C108.913 21.7795 109.005 22.2001 109.201 22.5754C109.38 22.8764 109.739 23.0268 110.279 23.0268C110.549 23.0261 110.818 23.0018 111.084 22.9541C111.341 22.9102 111.593 22.8422 111.837 22.751L112.178 24.6368C111.861 24.7638 111.534 24.8669 111.202 24.9453C110.77 25.0398 110.328 25.0836 109.885 25.0757C109.327 25.0929 108.77 25.0018 108.245 24.8074C107.84 24.6486 107.482 24.3897 107.205 24.055C106.935 23.7157 106.749 23.3181 106.66 22.8939C106.553 22.3996 106.501 21.895 106.505 21.3892V14.2244H106.51ZM113.131 20.6946C113.116 20.0145 113.234 19.3381 113.479 18.7034C113.687 18.1728 113.999 17.6893 114.397 17.2814C114.77 16.911 115.216 16.6215 115.706 16.4313C116.189 16.2378 116.705 16.1383 117.226 16.1379C118.44 16.1379 119.398 16.509 120.102 17.2513C120.804 17.9937 121.156 19.0829 121.156 20.519C121.156 20.6595 121.15 20.8141 121.138 20.983C121.126 21.1502 121.115 21.2989 121.105 21.4294H115.613C115.635 21.6668 115.709 21.8964 115.831 22.1015C115.952 22.3067 116.118 22.4823 116.315 22.6155C116.809 22.9311 117.388 23.0845 117.973 23.0544C118.412 23.0546 118.851 23.0135 119.282 22.9315C119.642 22.8703 119.993 22.7694 120.33 22.6306L120.656 24.5967C120.489 24.6761 120.316 24.7416 120.137 24.7923C119.9 24.8622 119.659 24.9192 119.415 24.9629C119.148 25.013 118.863 25.0548 118.562 25.0883C118.26 25.1203 117.956 25.1362 117.652 25.1359C116.968 25.1507 116.287 25.035 115.646 24.7948C115.112 24.5903 114.629 24.271 114.231 23.8594C113.851 23.4588 113.565 22.9781 113.394 22.4525C113.212 21.8854 113.122 21.2927 113.128 20.6971L113.131 20.6946ZM118.823 19.7667C118.813 19.5625 118.777 19.3604 118.718 19.1648C118.661 18.9753 118.567 18.7989 118.442 18.6457C118.312 18.4901 118.152 18.3629 117.971 18.272C117.75 18.1681 117.507 18.1182 117.263 18.1266C117.023 18.1202 116.784 18.1673 116.564 18.2645C116.373 18.3484 116.203 18.4724 116.065 18.6281C115.932 18.7841 115.83 18.9636 115.764 19.1573C115.693 19.3553 115.641 19.5592 115.608 19.7667H118.823ZM125.477 23.1648C125.796 23.1843 126.117 23.14 126.419 23.0344C126.511 22.9889 126.587 22.9164 126.636 22.8268C126.685 22.7371 126.706 22.6346 126.695 22.5328C126.685 22.4251 126.646 22.322 126.583 22.234C126.52 22.146 126.435 22.076 126.337 22.0312C125.989 21.8324 125.625 21.6645 125.248 21.5297C124.897 21.401 124.552 21.2545 124.215 21.0908C123.925 20.9522 123.66 20.7686 123.428 20.5466C123.21 20.3333 123.039 20.0771 122.926 19.7943C122.799 19.4571 122.739 19.0986 122.748 18.7385C122.734 18.3733 122.808 18.0101 122.963 17.6793C123.118 17.3486 123.351 17.0599 123.641 16.8376C124.236 16.3694 125.054 16.1354 126.093 16.1354C126.598 16.1331 127.102 16.1793 127.598 16.2733C127.985 16.3414 128.366 16.442 128.737 16.5742L128.315 18.4601C128.014 18.3602 127.708 18.2765 127.397 18.2093C127.032 18.1302 126.658 18.0923 126.284 18.0965C125.525 18.0965 125.145 18.308 125.145 18.731C125.145 18.8169 125.161 18.9021 125.193 18.9817C125.238 19.0707 125.305 19.1461 125.389 19.1999C125.515 19.287 125.648 19.3634 125.787 19.4281C125.955 19.5117 126.169 19.602 126.429 19.699C126.882 19.8608 127.322 20.0553 127.746 20.2808C128.052 20.4409 128.329 20.6502 128.566 20.9002C128.76 21.1114 128.904 21.3633 128.987 21.6375C129.074 21.9434 129.115 22.2602 129.11 22.5779C129.131 22.9518 129.054 23.3246 128.887 23.66C128.721 23.9953 128.47 24.2818 128.16 24.4914C127.525 24.9227 126.628 25.1401 125.471 25.1434C124.835 25.1565 124.199 25.0908 123.578 24.9478C123.221 24.8644 122.871 24.7554 122.53 24.6218L122.936 22.6557C123.347 22.8178 123.771 22.9453 124.203 23.0369C124.622 23.1237 125.049 23.1665 125.477 23.1648V23.1648Z" fill="white"/>
</svg>
